999
dxfrw 0.6.3
  0
SECTION
  2
HEADER
  9
$ACADVER
  1
AC1021
  9
$DWGCODEPAGE
  3
ANSI_1252
  9
$INSBASE
 10
0
 20
0
 30
0
  9
$EXTMIN
 10
717.1045482906109
 20
899.2254482645521
 30
0
  9
$EXTMAX
 10
769.5150203858459
 20
950.1982723054427
 30
0
  9
$LIMMIN
 10
0
 20
0
  9
$LIMMAX
 10
420
 20
297
  9
$ORTHOMODE
 70
    0
  9
$REGENMODE
 70
    1
  9
$FILLMODE
 70
    1
  9
$QTEXTMODE
 70
    0
  9
$MIRRTEXT
 70
    0
  9
$LTSCALE
 40
1
  9
$ATTMODE
 70
    0
  9
$TEXTSIZE
 40
2.5
  9
$TRACEWID
 40
15.68
  9
$TEXTSTYLE
  7
STANDARD
  9
$CLAYER
  8
0
  9
$CELTYPE
  6
BYLAYER
  9
$CECOLOR
 62
  256
  9
$CELTSCALE
 40
1
  9
$DISPSILH
 70
    0
  9
$DIMSCALE
 40
2.5
  9
$DIMASZ
 40
2.5
  9
$DIMEXO
 40
0.625
  9
$DIMDLI
 40
3.75
  9
$DIMRND
 40
0
  9
$DIMDLE
 40
0
  9
$DIMEXE
 40
1.25
  9
$DIMTP
 40
0
  9
$DIMTM
 40
0
  9
$DIMTXT
 40
2.5
  9
$DIMCEN
 40
2.5
  9
$DIMTSZ
 40
0
  9
$DIMTOL
 70
    0
  9
$DIMLIM
 70
    0
  9
$DIMTIH
 70
    0
  9
$DIMTOH
 70
    0
  9
$DIMSE1
 70
    0
  9
$DIMSE2
 70
    0
  9
$DIMTAD
 70
    1
  9
$DIMZIN
 70
    8
  9
$DIMBLK
  1

  9
$DIMASO
 70
    1
  9
$DIMSHO
 70
    1
  9
$DIMPOST
  1

  9
$DIMAPOST
  1

  9
$DIMALT
 70
    0
  9
$DIMALTD
 70
    3
  9
$DIMALTF
 40
0.03937
  9
$DIMLFAC
 40
1
  9
$DIMTOFL
 70
    1
  9
$DIMTVP
 40
0
  9
$DIMTIX
 70
    0
  9
$DIMSOXD
 70
    0
  9
$DIMSAH
 70
    0
  9
$DIMBLK1
  1

  9
$DIMBLK2
  1

  9
$DIMSTYLE
  2
Standard
  9
$DIMCLRD
 70
    0
  9
$DIMCLRE
 70
    0
  9
$DIMCLRT
 70
    0
  9
$DIMTFAC
 40
1
  9
$DIMGAP
 40
0.625
  9
$DIMJUST
 70
    0
  9
$DIMSD1
 70
    0
  9
$DIMSD2
 70
    0
  9
$DIMTOLJ
 70
    0
  9
$DIMTZIN
 70
    8
  9
$DIMALTZ
 70
    0
  9
$DIMALTTZ
 70
    0
  9
$DIMUPT
 70
    0
  9
$DIMDEC
 70
    2
  9
$DIMTDEC
 70
    2
  9
$DIMALTU
 70
    2
  9
$DIMALTTD
 70
    3
  9
$DIMTXSTY
  7
STANDARD
  9
$DIMAUNIT
 70
    0
  9
$DIMADEC
 70
    0
  9
$DIMALTRND
 40
0
  9
$DIMAZIN
 70
    0
  9
$DIMDSEP
 70
   44
  9
$DIMATFIT
 70
    3
  9
$DIMFRAC
 70
    0
  9
$DIMLDRBLK
  1
STANDARD
  9
$DIMLUNIT
 70
    2
  9
$DIMLWD
 70
   -2
  9
$DIMLWE
 70
   -2
  9
$DIMTMOVE
 70
    0
  9
$DIMFXL
 40
1
  9
$DIMFXLON
 70
    0
  9
$DIMJOGANG
 40
0.7854
  9
$DIMTFILL
 70
    0
  9
$DIMTFILLCLR
 70
    0
  9
$DIMARCSYM
 70
    0
  9
$DIMLTYPE
  6

  9
$DIMLTEX1
  6

  9
$DIMLTEX2
  6

  9
$LUNITS
 70
    2
  9
$LUPREC
 70
    4
  9
$SKETCHINC
 40
1
  9
$FILLETRAD
 40
0
  9
$AUNITS
 70
    0
  9
$AUPREC
 70
    2
  9
$MENU
  1
.
  9
$ELEVATION
 40
0
  9
$PELEVATION
 40
0
  9
$THICKNESS
 40
0
  9
$LIMCHECK
 70
    0
  9
$CHAMFERA
 40
0
  9
$CHAMFERB
 40
0
  9
$CHAMFERC
 40
0
  9
$CHAMFERD
 40
0
  9
$SKPOLY
 70
    0
  9
$USRTIMER
 70
    1
  9
$ANGBASE
 50
0
  9
$ANGDIR
 70
    0
  9
$PDMODE
 70
   34
  9
$PDSIZE
 40
0
  9
$PLINEWID
 40
0
  9
$SPLFRAME
 70
    0
  9
$SPLINETYPE
 70
    2
  9
$SPLINESEGS
 70
    8
  9
$HANDSEED
  5
20000
  9
$SURFTAB1
 70
    6
  9
$SURFTAB2
 70
    6
  9
$SURFTYPE
 70
    6
  9
$SURFU
 70
    6
  9
$SURFV
 70
    6
  9
$UCSBASE
  2

  9
$UCSNAME
  2

  9
$UCSORG
 10
0
 20
0
 30
0
  9
$UCSXDIR
 10
1
 20
0
 30
0
  9
$UCSYDIR
 10
0
 20
1
 30
0
  9
$UCSORTHOREF
  2

  9
$UCSORTHOVIEW
 70
    0
  9
$UCSORGTOP
 10
0
 20
0
 30
0
  9
$UCSORGBOTTOM
 10
0
 20
0
 30
0
  9
$UCSORGLEFT
 10
0
 20
0
 30
0
  9
$UCSORGRIGHT
 10
0
 20
0
 30
0
  9
$UCSORGFRONT
 10
0
 20
0
 30
0
  9
$UCSORGBACK
 10
0
 20
0
 30
0
  9
$PUCSBASE
  2

  9
$PUCSNAME
  2

  9
$PUCSORG
 10
0
 20
0
 30
0
  9
$PUCSXDIR
 10
1
 20
0
 30
0
  9
$PUCSYDIR
 10
0
 20
1
 30
0
  9
$PUCSORTHOREF
  2

  9
$PUCSORTHOVIEW
 70
    0
  9
$PUCSORGTOP
 10
0
 20
0
 30
0
  9
$PUCSORGBOTTOM
 10
0
 20
0
 30
0
  9
$PUCSORGLEFT
 10
0
 20
0
 30
0
  9
$PUCSORGRIGHT
 10
0
 20
0
 30
0
  9
$PUCSORGFRONT
 10
0
 20
0
 30
0
  9
$PUCSORGBACK
 10
0
 20
0
 30
0
  9
$USERI1
 70
    0
  9
$USERI2
 70
    0
  9
$USERI3
 70
    0
  9
$USERI4
 70
    0
  9
$USERI5
 70
    0
  9
$USERR1
 40
0
  9
$USERR2
 40
0
  9
$USERR3
 40
0
  9
$USERR4
 40
0
  9
$USERR5
 40
0
  9
$WORLDVIEW
 70
    1
  9
$SHADEDGE
 70
    3
  9
$SHADEDIF
 70
   70
  9
$TILEMODE
 70
    1
  9
$MAXACTVP
 70
   64
  9
$PINSBASE
 10
0
 20
0
 30
0
  9
$PLIMCHECK
 70
    0
  9
$PEXTMIN
 10
0
 20
0
 30
0
  9
$PEXTMAX
 10
0
 20
0
 30
0
  9
$GRIDMODE
 70
    0
  9
$SNAPSTYLE
 70
    0
  9
$PLIMMIN
 10
0
 20
0
  9
$PLIMMAX
 10
210
 20
297
  9
$UNITMODE
 70
    0
  9
$VISRETAIN
 70
    1
  9
$PLINEGEN
 70
    0
  9
$PSLTSCALE
 70
    1
  9
$TREEDEPTH
 70
 3020
  9
$CMLSTYLE
  2
Standard
  9
$CMLJUST
 70
    0
  9
$CMLSCALE
 40
20
  9
$PROXYGRAPHICS
 70
    1
  9
$MEASUREMENT
 70
    1
  9
$CELWEIGHT
370
   -1
  9
$ENDCAPS
280
    0
  9
$JOINSTYLE
280
    0
  9
$LWDISPLAY
290
    0
  9
$INSUNITS
 70
    4
  9
$HYPERLINKBASE
  1

  9
$STYLESHEET
  1

  9
$XEDIT
290
    1
  9
$CEPSNTYPE
380
    0
  9
$PSTYLEMODE
290
    1
  9
$EXTNAMES
290
    1
  9
$PSVPSCALE
 40
1
  9
$OLESTARTUP
290
    0
  9
$SORTENTS
280
  127
  9
$INDEXCTL
280
    0
  9
$HIDETEXT
280
    1
  9
$XCLIPFRAME
290
    0
  9
$HALOGAP
280
    0
  9
$OBSCOLOR
 70
  257
  9
$OBSLTYPE
280
    0
  9
$INTERSECTIONDISPLAY
280
    0
  9
$INTERSECTIONCOLOR
 70
  257
  9
$DIMASSOC
280
    1
  9
$PROJECTNAME
  1

  9
$CAMERADISPLAY
290
    0
  9
$LENSLENGTH
 40
50
  9
$CAMERAHEIGHT
 40
0
  9
$STEPSPERSEC
 40
2
  9
$STEPSIZE
 40
50
  9
$3DDWFPREC
 40
2
  9
$PSOLWIDTH
 40
5
  9
$PSOLHEIGHT
 40
80
  9
$LOFTANG1
 40
1.570796326794897
  9
$LOFTANG2
 40
1.570796326794897
  9
$LOFTMAG1
 40
0
  9
$LOFTMAG2
 40
0
  9
$LOFTPARAM
 70
    7
  9
$LOFTNORMALS
280
    1
  9
$LATITUDE
 40
1
  9
$LONGITUDE
 40
1
  9
$NORTHDIRECTION
 40
0
  9
$TIMEZONE
 70
-8000
  9
$LIGHTGLYPHDISPLAY
280
    1
  9
$TILEMODELIGHTSYNCH
280
    1
  9
$SOLIDHIST
280
    1
  9
$SHOWHIST
280
    1
  9
$DWFFRAME
280
    2
  9
$DGNFRAME
280
    0
  9
$REALWORLDSCALE
290
    1
  9
$INTERFERECOLOR
 62
    1
  9
$CSHADOW
280
    0
  9
$SHADOWPLANELOCATION
 40
0
  0
ENDSEC
  0
SECTION
  2
CLASSES
  0
ENDSEC
  0
SECTION
  2
TABLES
  0
TABLE
  2
VPORT
  5
8
330
0
100
AcDbSymbolTable
 70
    1
  0
VPORT
  5
31
330
2
100
AcDbSymbolTableRecord
100
AcDbViewportTableRecord
  2
*ACTIVE
 70
    0
 10
0
 20
0
 11
1
 21
1
 12
370.0007374390478
 22
466.1628528608312
 13
0
 23
0
 14
10
 24
10
 15
10
 25
10
 16
0
 26
0
 36
1
 17
0
 27
0
 37
0
 40
14.22033706843342
 41
1.140255009107468
 42
50
 43
0
 44
0
 50
0
 51
0
 71
    0
 72
  100
 73
    1
 74
    3
 75
    0
 76
    0
 77
    0
 78
    0
281
    0
 65
    1
110
0
120
0
130
0
111
1
121
0
131
0
112
0
122
1
132
0
 79
    0
146
0
348
10020
 60
    7
 61
    5
292
1
282
    1
141
0
142
0
 63
  250
421
3358443
  0
ENDTAB
  0
TABLE
  2
LTYPE
  5
5
330
0
100
AcDbSymbolTable
 70
    4
  0
LTYPE
  5
14
330
5
100
AcDbSymbolTableRecord
100
AcDbLinetypeTableRecord
  2
ByBlock
 70
    0
  3

 72
   65
 73
    0
 40
0
  0
LTYPE
  5
15
330
5
100
AcDbSymbolTableRecord
100
AcDbLinetypeTableRecord
  2
ByLayer
 70
    0
  3

 72
   65
 73
    0
 40
0
  0
LTYPE
  5
16
330
5
100
AcDbSymbolTableRecord
100
AcDbLinetypeTableRecord
  2
Continuous
 70
    0
  3
Solid line
 72
   65
 73
    0
 40
0
  0
LTYPE
  5
32
330
5
100
AcDbSymbolTableRecord
100
AcDbLinetypeTableRecord
  2
DOT
 70
    0
  3
Dot . . . . . . . . . . . . . . . . . . . . . .
 72
   65
 73
    2
 40
6.35
 49
0
 74
    0
 49
-6.35
 74
    0
  0
LTYPE
  5
33
330
5
100
AcDbSymbolTableRecord
100
AcDbLinetypeTableRecord
  2
DOTTINY
 70
    0
  3
Dot (.15x) .....................................
 72
   65
 73
    2
 40
0.9525
 49
0
 74
    0
 49
-0.9525
 74
    0
  0
LTYPE
  5
34
330
5
100
AcDbSymbolTableRecord
100
AcDbLinetypeTableRecord
  2
DOT2
 70
    0
  3
Dot (.5x) .....................................
 72
   65
 73
    2
 40
3.175
 49
0
 74
    0
 49
-3.175
 74
    0
  0
LTYPE
  5
35
330
5
100
AcDbSymbolTableRecord
100
AcDbLinetypeTableRecord
  2
DOTX2
 70
    0
  3
Dot (2x) .  .  .  .  .  .  .  .  .  .  .  .  .
 72
   65
 73
    2
 40
12.7
 49
0
 74
    0
 49
-12.7
 74
    0
  0
LTYPE
  5
36
330
5
100
AcDbSymbolTableRecord
100
AcDbLinetypeTableRecord
  2
DASHED
 70
    0
  3
Dashed _ _ _ _ _ _ _ _ _ _ _ _ _ _ _ _ _
 72
   65
 73
    2
 40
19.05
 49
12.7
 74
    0
 49
-6.35
 74
    0
  0
LTYPE
  5
37
330
5
100
AcDbSymbolTableRecord
100
AcDbLinetypeTableRecord
  2
DASHEDTINY
 70
    0
  3
Dashed (.15x) _ _ _ _ _ _ _ _ _ _ _ _ _ _ _ _ _
 72
   65
 73
    2
 40
2.8575
 49
1.905
 74
    0
 49
-0.9525
 74
    0
  0
LTYPE
  5
38
330
5
100
AcDbSymbolTableRecord
100
AcDbLinetypeTableRecord
  2
DASHED2
 70
    0
  3
Dashed (.5x) _ _ _ _ _ _ _ _ _ _ _ _ _ _ _ _ _
 72
   65
 73
    2
 40
9.524999999999999
 49
6.35
 74
    0
 49
-3.175
 74
    0
  0
LTYPE
  5
39
330
5
100
AcDbSymbolTableRecord
100
AcDbLinetypeTableRecord
  2
DASHEDX2
 70
    0
  3
Dashed (2x) ____  ____  ____  ____  ____  ___
 72
   65
 73
    2
 40
38.09999999999999
 49
25.4
 74
    0
 49
-12.7
 74
    0
  0
LTYPE
  5
3A
330
5
100
AcDbSymbolTableRecord
100
AcDbLinetypeTableRecord
  2
DASHDOT
 70
    0
  3
Dash dot __ . __ . __ . __ . __ . __ . __ . __
 72
   65
 73
    4
 40
25.4
 49
12.7
 74
    0
 49
-6.35
 74
    0
 49
0
 74
    0
 49
-6.35
 74
    0
  0
LTYPE
  5
3B
330
5
100
AcDbSymbolTableRecord
100
AcDbLinetypeTableRecord
  2
DASHDOTTINY
 70
    0
  3
Dash dot (.15x) _._._._._._._._._._._._._._._.
 72
   65
 73
    4
 40
3.81
 49
1.905
 74
    0
 49
-0.9525
 74
    0
 49
0
 74
    0
 49
-0.9525
 74
    0
  0
LTYPE
  5
3C
330
5
100
AcDbSymbolTableRecord
100
AcDbLinetypeTableRecord
  2
DASHDOT2
 70
    0
  3
Dash dot (.5x) _._._._._._._._._._._._._._._.
 72
   65
 73
    4
 40
12.7
 49
6.35
 74
    0
 49
-3.175
 74
    0
 49
0
 74
    0
 49
-3.175
 74
    0
  0
LTYPE
  5
3D
330
5
100
AcDbSymbolTableRecord
100
AcDbLinetypeTableRecord
  2
DASHDOTX2
 70
    0
  3
Dash dot (2x) ____  .  ____  .  ____  .  ___
 72
   65
 73
    4
 40
50.8
 49
25.4
 74
    0
 49
-12.7
 74
    0
 49
0
 74
    0
 49
-12.7
 74
    0
  0
LTYPE
  5
3E
330
5
100
AcDbSymbolTableRecord
100
AcDbLinetypeTableRecord
  2
DIVIDE
 70
    0
  3
Divide ____ . . ____ . . ____ . . ____ . . ____
 72
   65
 73
    6
 40
31.75
 49
12.7
 74
    0
 49
-6.35
 74
    0
 49
0
 74
    0
 49
-6.35
 74
    0
 49
0
 74
    0
 49
-6.35
 74
    0
  0
LTYPE
  5
3F
330
5
100
AcDbSymbolTableRecord
100
AcDbLinetypeTableRecord
  2
DIVIDETINY
 70
    0
  3
Divide (.15x) __..__..__..__..__..__..__..__.._
 72
   65
 73
    6
 40
4.7625
 49
1.905
 74
    0
 49
-0.9525
 74
    0
 49
0
 74
    0
 49
-0.9525
 74
    0
 49
0
 74
    0
 49
-0.9525
 74
    0
  0
LTYPE
  5
40
330
5
100
AcDbSymbolTableRecord
100
AcDbLinetypeTableRecord
  2
DIVIDE2
 70
    0
  3
Divide (.5x) __..__..__..__..__..__..__..__.._
 72
   65
 73
    6
 40
15.875
 49
6.35
 74
    0
 49
-3.175
 74
    0
 49
0
 74
    0
 49
-3.175
 74
    0
 49
0
 74
    0
 49
-3.175
 74
    0
  0
LTYPE
  5
41
330
5
100
AcDbSymbolTableRecord
100
AcDbLinetypeTableRecord
  2
DIVIDEX2
 70
    0
  3
Divide (2x) ________  .  .  ________  .  .  _
 72
   65
 73
    6
 40
63.5
 49
25.4
 74
    0
 49
-12.7
 74
    0
 49
0
 74
    0
 49
-12.7
 74
    0
 49
0
 74
    0
 49
-12.7
 74
    0
  0
LTYPE
  5
42
330
5
100
AcDbSymbolTableRecord
100
AcDbLinetypeTableRecord
  2
BORDER
 70
    0
  3
Border __ __ . __ __ . __ __ . __ __ . __ __ .
 72
   65
 73
    6
 40
44.45
 49
12.7
 74
    0
 49
-6.35
 74
    0
 49
12.7
 74
    0
 49
-6.35
 74
    0
 49
0
 74
    0
 49
-6.35
 74
    0
  0
LTYPE
  5
43
330
5
100
AcDbSymbolTableRecord
100
AcDbLinetypeTableRecord
  2
BORDERTINY
 70
    0
  3
Border (.15x) __.__.__.__.__.__.__.__.__.__.__.
 72
   65
 73
    6
 40
6.6675
 49
1.905
 74
    0
 49
-0.9525
 74
    0
 49
1.905
 74
    0
 49
-0.9525
 74
    0
 49
0
 74
    0
 49
-0.9525
 74
    0
  0
LTYPE
  5
44
330
5
100
AcDbSymbolTableRecord
100
AcDbLinetypeTableRecord
  2
BORDER2
 70
    0
  3
Border (.5x) __.__.__.__.__.__.__.__.__.__.__.
 72
   65
 73
    6
 40
22.225
 49
6.35
 74
    0
 49
-3.175
 74
    0
 49
6.35
 74
    0
 49
-3.175
 74
    0
 49
0
 74
    0
 49
-3.175
 74
    0
  0
LTYPE
  5
45
330
5
100
AcDbSymbolTableRecord
100
AcDbLinetypeTableRecord
  2
BORDERX2
 70
    0
  3
Border (2x) ____  ____  .  ____  ____  .  ___
 72
   65
 73
    6
 40
88.89999999999999
 49
25.4
 74
    0
 49
-12.7
 74
    0
 49
25.4
 74
    0
 49
-12.7
 74
    0
 49
0
 74
    0
 49
-12.7
 74
    0
  0
LTYPE
  5
46
330
5
100
AcDbSymbolTableRecord
100
AcDbLinetypeTableRecord
  2
CENTER
 70
    0
  3
Center ____ _ ____ _ ____ _ ____ _ ____ _ ____
 72
   65
 73
    4
 40
50.8
 49
31.75
 74
    0
 49
-6.35
 74
    0
 49
6.35
 74
    0
 49
-6.35
 74
    0
  0
LTYPE
  5
47
330
5
100
AcDbSymbolTableRecord
100
AcDbLinetypeTableRecord
  2
CENTERTINY
 70
    0
  3
Center (.15x) ___ _ ___ _ ___ _ ___ _ ___ _ ___
 72
   65
 73
    4
 40
7.619999999999999
 49
4.7625
 74
    0
 49
-0.9525
 74
    0
 49
0.9525
 74
    0
 49
-0.9525
 74
    0
  0
LTYPE
  5
48
330
5
100
AcDbSymbolTableRecord
100
AcDbLinetypeTableRecord
  2
CENTER2
 70
    0
  3
Center (.5x) ___ _ ___ _ ___ _ ___ _ ___ _ ___
 72
   65
 73
    4
 40
28.575
 49
19.05
 74
    0
 49
-3.175
 74
    0
 49
3.175
 74
    0
 49
-3.175
 74
    0
  0
LTYPE
  5
49
330
5
100
AcDbSymbolTableRecord
100
AcDbLinetypeTableRecord
  2
CENTERX2
 70
    0
  3
Center (2x) ________  __  ________  __  _____
 72
   65
 73
    4
 40
101.6
 49
63.5
 74
    0
 49
-12.7
 74
    0
 49
12.7
 74
    0
 49
-12.7
 74
    0
  0
ENDTAB
  0
TABLE
  2
LAYER
  5
2
330
0
100
AcDbSymbolTable
 70
    1
  0
LAYER
  5
10
330
2
100
AcDbSymbolTableRecord
100
AcDbLayerTableRecord
  2
0
 70
    0
 62
    7
  6
CONTINUOUS
370
   -3
390
F
  0
LAYER
  5
4A
330
2
100
AcDbSymbolTableRecord
100
AcDbLayerTableRecord
  2
00
 70
    0
 62
    7
  6
CONTINUOUS
370
    0
390
F
  0
LAYER
  5
4B
330
2
100
AcDbSymbolTableRecord
100
AcDbLayerTableRecord
  2
3
 70
    0
 62
    7
  6
CONTINUOUS
370
    0
390
F
  0
LAYER
  5
4C
330
2
100
AcDbSymbolTableRecord
100
AcDbLayerTableRecord
  2
4
 70
    0
 62
    7
  6
CONTINUOUS
370
    0
390
F
  0
ENDTAB
  0
TABLE
  2
STYLE
  5
3
330
0
100
AcDbSymbolTable
 70
    3
  0
STYLE
  5
4D
330
2
100
AcDbSymbolTableRecord
100
AcDbTextStyleTableRecord
  2
standard
 70
    0
 40
0
 41
1
 50
0
 71
    0
 42
1
  3
standard
  4

  0
ENDTAB
  0
TABLE
  2
VIEW
  5
6
330
0
100
AcDbSymbolTable
 70
    0
  0
ENDTAB
  0
TABLE
  2
UCS
  5
7
330
0
100
AcDbSymbolTable
 70
    0
  0
ENDTAB
  0
TABLE
  2
APPID
  5
9
330
0
100
AcDbSymbolTable
 70
    1
  0
APPID
  5
12
330
9
100
AcDbSymbolTableRecord
100
AcDbRegAppTableRecord
  2
ACAD
 70
    0
  0
APPID
  5
4E
330
9
100
AcDbSymbolTableRecord
100
AcDbRegAppTableRecord
  2
LibreCad
 70
    0
  0
ENDTAB
  0
TABLE
  2
DIMSTYLE
  5
A
330
0
100
AcDbSymbolTable
 70
    1
100
AcDbDimStyleTable
 71
    1
  0
DIMSTYLE
105
4F
330
A
100
AcDbSymbolTableRecord
100
AcDbDimStyleTableRecord
  2
Standard
 70
    0
 40
1
 41
2.5
 42
0.625
 43
0.38
 44
1.25
 45
0
 46
0
 47
0
 48
0
 49
1
140
2.5
141
0.09
142
2.5
143
25.4
144
1
145
0
146
1
147
0.625
148
0
 71
    0
 72
    0
 73
    0
 74
    1
 75
    0
 76
    0
 77
    0
 78
    1
 79
    0
170
    0
171
    2
172
    0
173
    0
174
    0
175
    0
176
    0
177
    0
178
    0
179
    0
271
    2
272
    4
273
    2
274
    2
275
    0
276
    0
277
    2
278
    0
279
    0
280
    0
281
    0
282
    0
283
    1
284
    0
285
    0
286
    0
288
    0
289
    3
340
standard
341

371
   -2
372
   -2
  0
ENDTAB
  0
TABLE
  2
BLOCK_RECORD
  5
1
330
0
100
AcDbSymbolTable
 70
    2
  0
BLOCK_RECORD
  5
1F
330
1
100
AcDbSymbolTableRecord
100
AcDbBlockTableRecord
  2
*Model_Space
 70
    0
280
    1
281
    0
  0
BLOCK_RECORD
  5
1E
330
1
100
AcDbSymbolTableRecord
100
AcDbBlockTableRecord
  2
*Paper_Space
 70
    0
280
    1
281
    0
  0
ENDTAB
  0
ENDSEC
  0
SECTION
  2
BLOCKS
  0
BLOCK
  5
20
330
1F
100
AcDbEntity
  8
0
100
AcDbBlockBegin
  2
*Model_Space
 70
    0
 10
0
 20
0
 30
0
  3
*Model_Space
  1

  0
ENDBLK
  5
21
330
1F
100
AcDbEntity
  8
0
100
AcDbBlockEnd
  0
BLOCK
  5
1C
330
1B
100
AcDbEntity
  8
0
100
AcDbBlockBegin
  2
*Paper_Space
 70
    0
 10
0
 20
0
 30
0
  3
*Paper_Space
  1

  0
ENDBLK
  5
1D
330
1F
100
AcDbEntity
  8
0
100
AcDbBlockEnd
  0
ENDSEC
  0
SECTION
  2
ENTITIES
  0
LINE
  5
50
100
AcDbEntity
  8
3
  6
DASHDOT
 62
    2
370
   50
100
AcDbLine
 10
755.4520293176436
 20
950.1982723054427
 11
769.5150203858459
 21
912.8568265250126
  0
LINE
  5
51
100
AcDbEntity
  8
3
  6
DASHDOT
 62
    2
370
   50
100
AcDbLine
 10
752.6491982604723
 20
941.8121362829103
 11
752.7869328953507
 21
941.8686635057267
  0
LINE
  5
52
100
AcDbEntity
  8
3
  6
DASHDOT
 62
    2
370
   50
100
AcDbLine
 10
752.7869328953507
 20
941.8686635057267
 11
755.4520293176436
 21
950.1982723054427
  0
TEXT
  5
53
100
AcDbEntity
  8
3
  6
DASHDOT
 62
    2
370
   15
100
AcDbText
 10
760.8307668456098
 20
931.3303308371856
 30
0
 40
0.2
  1
A119
 50
5.072566509246826
 41
1
 51
0
  7
standard
 71
    0
 72
    1
 11
760.8307668456098
 21
931.3303308371856
 31
0
210
0
220
0
230
1
100
AcDbText
 73
    2
  0
LINE
  5
54
100
AcDbEntity
  8
3
  6
DASHDOT
 62
    2
370
   50
100
AcDbLine
 10
725.4969328953133
 20
930.6686635055404
 11
725.6357008614044
 21
930.7256148144535
  0
LINE
  5
55
100
AcDbEntity
  8
3
  6
DASHDOT
 62
    2
370
   50
100
AcDbLine
 10
732.7126385048584
 20
899.2254482645521
 11
717.1045482906109
 21
932.7979320235588
  0
LINE
  5
56
100
AcDbEntity
  8
3
  6
DASHDOT
 62
    2
370
   50
100
AcDbLine
 10
717.1045482906109
 20
932.7979320235588
 11
725.4969328953133
 21
930.6686635055404
  0
TEXT
  5
57
100
AcDbEntity
  8
3
  6
DASHDOT
 62
    2
370
   15
100
AcDbText
 10
727.6839362029008
 20
917.4681653234605
 30
0
 40
0.2
  1
A119
 50
5.101834297180176
 41
1
 51
0
  7
standard
 71
    0
 72
    1
 11
727.6839362029008
 21
917.4681653234605
 31
0
210
0
220
0
230
1
100
AcDbText
 73
    2
  0
LINE
  5
58
100
AcDbEntity
  8
3
  6
DOT
 62
    2
370
   30
100
AcDbLine
 10
738.1432829155833
 20
926.9302372103153
 11
739.7206121301514
 21
927.577583754963
  0
LINE
  5
59
100
AcDbEntity
  8
3
  6
DOT
 62
    2
370
   30
100
AcDbLine
 10
744.8365244800435
 20
929.6771886769003
 11
746.2935881240005
 21
930.2751774204904
  0
LINE
  5
5A
100
AcDbEntity
  8
3
  6
CENTER
 62
    2
370
   30
100
AcDbLine
 10
746.2935881240005
 20
930.2751774204904
 11
745.2253383653133
 21
932.8780824128239
  0
LINE
  5
5B
100
AcDbEntity
  8
3
  6
CENTER
 62
    2
370
   30
100
AcDbLine
 10
747.7460634585867
 20
939.7998567013068
 11
752.6491982604723
 21
941.8121362829103
  0
LINE
  5
5C
100
AcDbEntity
  8
3
  6
CONTINUOUS
 62
    2
370
   15
100
AcDbLine
 10
752.6491982604723
 20
941.8121362829103
 11
759.695973550012
 21
924.6419132785712
  0
LINE
  5
5D
100
AcDbEntity
  8
3
  6
CONTINUOUS
 62
    2
370
   15
100
AcDbLine
 10
732.5685735331174
 20
913.8329277422969
 11
727.7087285058487
 21
925.6744608487376
  0
LINE
  5
5E
100
AcDbEntity
  8
3
  6
CENTER
 62
    2
370
   30
100
AcDbLine
 10
737.0801918158683
 20
929.5205725773495
 11
738.1432829155833
 21
926.9302372103153
  0
TEXT
  5
5F
100
AcDbEntity
  8
3
  6
CENTER
 62
    2
370
   15
100
AcDbText
 10
745.2827255557742
 20
921.5820692892052
 30
0
 40
0.2
  1
A226
 50
0.3894453942775726
 41
1
 51
0
  7
standard
 71
    0
 72
    1
 11
745.2827255557742
 21
921.5820692892052
 31
0
210
0
220
0
230
1
100
AcDbText
 73
    2
  0
LINE
  5
60
100
AcDbEntity
  8
3
  6
DASHDOT
 62
    2
370
   50
100
AcDbLine
 10
763.229537261385
 20
916.4284980875535
 11
769.5150203858459
 21
912.8568265250126
  0
LINE
  5
61
100
AcDbEntity
  8
3
  6
DASHDOT
 62
    2
370
   50
100
AcDbLine
 10
769.5150203858459
 20
912.8568265250126
 11
732.7126385048584
 21
899.2254482645521
  0
LINE
  5
62
100
AcDbEntity
  8
3
  6
DASHDOT
 62
    2
370
   50
100
AcDbLine
 10
732.7126385048584
 20
899.2254482645521
 11
735.7709490232735
 21
905.6349224227055
  0
TEXT
  5
63
100
AcDbEntity
  8
3
  6
DASHDOT
 62
    2
370
   15
100
AcDbText
 10
750.3523456822662
 20
908.5076118381163
 30
0
 40
0.2
  1
A119
 50
0.3746246695518494
 41
1
 51
0
  7
standard
 71
    0
 72
    1
 11
750.3523456822662
 21
908.5076118381163
 31
0
210
0
220
0
230
1
100
AcDbText
 73
    2
  0
LINE
  5
64
100
AcDbEntity
  8
3
  6
CENTER
 62
    2
370
   30
100
AcDbLine
 10
759.695973550012
 20
924.6419132785712
 11
759.834741516103
 21
924.6988645874845
  0
LINE
  5
65
100
AcDbEntity
  8
3
  6
CENTER
 62
    2
370
   30
100
AcDbLine
 10
759.834741516103
 20
924.6988645874845
 11
763.229537261385
 21
916.4284980875535
  0
LINE
  5
66
100
AcDbEntity
  8
3
  6
CENTER
 62
    2
370
   30
100
AcDbLine
 10
763.229537261385
 20
916.4284980875535
 11
763.2228513282707
 21
916.428822085423
  0
LINE
  5
67
100
AcDbEntity
  8
3
  6
CENTER
 62
    2
370
   30
100
AcDbLine
 10
763.2228513282707
 20
916.428822085423
 11
735.7709490232735
 21
905.6349224227055
  0
LINE
  5
68
100
AcDbEntity
  8
3
  6
CENTER
 62
    2
370
   30
100
AcDbLine
 10
735.7709490232735
 20
905.6349224227055
 11
732.4298055670263
 21
913.7759764333836
  0
LINE
  5
69
100
AcDbEntity
  8
3
  6
CENTER
 62
    2
370
   30
100
AcDbLine
 10
732.4298055670263
 20
913.7759764333836
 11
732.5685735331174
 21
913.8329277422969
  0
LINE
  5
6A
100
AcDbEntity
  8
3
  6
DASHDOT
 62
    2
370
   50
100
AcDbLine
 10
732.5685735331174
 20
913.8329277422969
 11
759.695973550012
 21
924.6419132785712
  0
TEXT
  5
6B
100
AcDbEntity
  8
3
  6
DASHDOT
 62
    2
370
   15
100
AcDbText
 10
747.8445267394504
 20
915.1586518587525
 30
0
 40
0.2
  1
A200
 50
0.3894453942775726
 41
1
 51
0
  7
standard
 71
    0
 72
    1
 11
747.8445267394504
 21
915.1586518587525
 31
0
210
0
220
0
230
1
100
AcDbText
 73
    2
  0
LINE
  5
6C
100
AcDbEntity
  8
3
  6
CENTER
 62
    2
370
   30
100
AcDbLine
 10
742.2785683051079
 20
928.6273862159356
 11
744.1889406382849
 21
929.4114159019715
  0
LINE
  5
6D
100
AcDbEntity
  8
3
  6
CENTER
 62
    2
370
   30
100
AcDbLine
 10
744.1889406382849
 20
929.4114159019715
 11
744.8365244800435
 21
929.6771886769003
  0
LINE
  5
6E
100
AcDbEntity
  8
3
  6
DOT
 62
    2
370
   30
100
AcDbLine
 10
744.8365244800435
 20
929.6771886769003
 11
746.7197144281105
 21
925.0885945981546
  0
LINE
  5
6F
100
AcDbEntity
  8
3
  6
CENTER
 62
    2
370
   30
100
AcDbLine
 10
746.7197144281105
 20
925.0885945981546
 11
744.1617582531657
 21
924.0387921371868
  0
TEXT
  5
70
100
AcDbEntity
  8
3
  6
CENTER
 62
    2
370
   15
100
AcDbText
 10
744.4991413666069
 20
926.857990407043
 30
0
 40
0.2
  1
A286
 50
5.101834297180176
 41
1
 51
0
  7
standard
 71
    0
 72
    1
 11
744.4991413666069
 21
926.857990407043
 31
0
210
0
220
0
230
1
100
AcDbText
 73
    2
  0
LINE
  5
71
100
AcDbEntity
  8
3
  6
DOT
 62
    2
370
   30
100
AcDbLine
 10
731.7692449626314
 20
933.2428626684219
 11
735.0071641714238
 21
934.5717265430657
  0
LINE
  5
72
100
AcDbEntity
  8
3
  6
CENTER
 62
    2
370
   30
100
AcDbLine
 10
735.0071641714238
 20
934.5717265430657
 11
737.0801918158683
 21
929.5205725773495
  0
LINE
  5
73
100
AcDbEntity
  8
3
  6
DASHDOT
 62
    2
370
   50
100
AcDbLine
 10
737.0801918158683
 20
929.5205725773495
 11
733.8422726070758
 21
928.1917087027058
  0
TEXT
  5
74
100
AcDbEntity
  8
3
  6
CENTER
 62
    2
370
   15
100
AcDbText
 10
734.42471838925
 20
931.3817176228857
 30
0
 40
0.2
  1
A276
 50
5.101834297180176
 41
1
 51
0
  7
standard
 71
    0
 72
    1
 11
734.42471838925
 21
931.3817176228857
 31
0
210
0
220
0
230
1
100
AcDbText
 73
    2
  0
LINE
  5
75
100
AcDbEntity
  8
3
  6
DOT
 62
    2
370
   30
100
AcDbLine
 10
743.1574693798412
 20
937.9166667532403
 11
747.7460634585867
 21
939.7998567013068
  0
LINE
  5
76
100
AcDbEntity
  8
3
  6
DASHDOT
 62
    2
370
   50
100
AcDbLine
 10
747.7460634585867
 20
939.7998567013068
 11
749.8139324440585
 21
934.7612723608904
  0
LINE
  5
77
100
AcDbEntity
  8
3
  6
DASHDOT
 62
    2
370
   50
100
AcDbLine
 10
749.8139324440585
 20
934.7612723608904
 11
745.2253383653133
 21
932.8780824128239
  0
LINE
  5
78
100
AcDbEntity
  8
3
  6
DASHDOT
 62
    2
370
   50
100
AcDbLine
 10
745.2253383653133
 20
932.8780824128239
 11
743.8560721025111
 21
936.2144463691894
  0
TEXT
  5
79
100
AcDbEntity
  8
3
  6
CENTER
 62
    2
370
   15
100
AcDbText
 10
746.4857009119499
 20
936.3389695570654
 30
0
 40
0.2
  1
A276
 50
5.101834297180176
 41
1
 51
0
  7
standard
 71
    0
 72
    1
 11
746.4857009119499
 21
936.3389695570654
 31
0
210
0
220
0
230
1
100
AcDbText
 73
    2
  0
LINE
  5
7A
100
AcDbEntity
  8
3
  6
DOT
 62
    2
370
   30
100
AcDbLine
 10
739.4847438772966
 20
936.4093554440016
 11
743.1574693798412
 21
937.9166667532403
  0
LINE
  5
7B
100
AcDbEntity
  8
3
  6
CENTER
 62
    2
370
   30
100
AcDbLine
 10
743.1574693798412
 20
937.9166667532403
 11
743.8560721025111
 21
936.2144463691894
  0
LINE
  5
7C
100
AcDbEntity
  8
3
  6
CENTER
 62
    2
370
   30
100
AcDbLine
 10
743.8560721025111
 20
936.2144463691894
 11
742.2833684868119
 21
935.5689982015055
  0
LINE
  5
7D
100
AcDbEntity
  8
3
  6
CENTER
 62
    2
370
   30
100
AcDbLine
 10
742.2833684868119
 20
935.5689982015055
 11
742.5947023088713
 21
934.8103999868739
  0
LINE
  5
7E
100
AcDbEntity
  8
3
  6
DOT
 62
    2
370
   30
100
AcDbLine
 10
742.5947023088713
 20
934.8103999868739
 11
740.4946804220259
 21
933.9485368453194
  0
LINE
  5
7F
100
AcDbEntity
  8
3
  6
CENTER
 62
    2
370
   30
100
AcDbLine
 10
740.4946804220259
 20
933.9485368453194
 11
739.4847438772966
 21
936.4093554440016
  0
TEXT
  5
80
100
AcDbEntity
  8
3
  6
CENTER
 62
    2
370
   15
100
AcDbText
 10
741.5585918917609
 20
936.0444178974229
 30
0
 40
0.2
  1
A26
 50
0.3894453942775726
 41
1
 51
0
  7
standard
 71
    0
 72
    1
 11
741.5585918917609
 21
936.0444178974229
 31
0
210
0
220
0
230
1
100
AcDbText
 73
    2
  0
TEXT
  5
81
100
AcDbEntity
  8
3
  6
CENTER
 62
    2
370
   15
100
AcDbText
 10
742.8350953093039
 20
929.9907768215912
 30
0
 40
0.1387243469778987
  1
A123
 50
5.101834297180176
 41
1
 51
0
  7
standard
 71
    0
 72
    1
 11
742.8350953093039
 21
929.9907768215912
 31
0
210
0
220
0
230
1
100
AcDbText
 73
    2
  0
LINE
  5
82
100
AcDbEntity
  8
3
  6
DASHDOT
 62
    2
370
   50
100
AcDbLine
 10
717.1045482906109
 20
932.7979320235588
 11
755.4520293176436
 21
950.1982723054427
  0
TEXT
  5
83
100
AcDbEntity
  8
3
  6
DOT
 62
    2
370
   15
100
AcDbText
 10
737.6459141726177
 20
939.5009145546711
 30
0
 40
0.2
  1
A332
 50
0.3894453942775726
 41
1
 51
0
  7
standard
 71
    0
 72
    1
 11
737.6459141726177
 21
939.5009145546711
 31
0
210
0
220
0
230
1
100
AcDbText
 73
    2
  0
LINE
  5
84
100
AcDbEntity
  8
3
  6
CENTER
 62
    2
370
   30
100
AcDbLine
 10
741.4812499803253
 20
930.570137741213
 11
742.2785683051079
 21
928.6273862159356
  0
TEXT
  5
85
100
AcDbEntity
  8
3
  6
DOT
 62
    2
370
   15
100
AcDbText
 10
740.9247229761304
 20
929.2067471355587
 30
0
 40
0.1387243469778987
  1
A123
 50
5.101834297180176
 41
1
 51
0
  7
standard
 71
    0
 72
    1
 11
740.9247229761304
 21
929.2067471355587
 31
0
210
0
220
0
230
1
100
AcDbText
 73
    2
  0
LINE
  5
86
100
AcDbEntity
  8
3
  6
DOT
 62
    2
370
   30
100
AcDbLine
 10
744.1889406382849
 20
929.4114159019715
 11
743.3916223134987
 21
931.354167427247
  0
LINE
  5
87
100
AcDbEntity
  8
3
  6
CENTER
 62
    2
370
   30
100
AcDbLine
 10
743.3916223134987
 20
931.354167427247
 11
741.4812499803253
 21
930.570137741213
  0
LINE
  5
88
100
AcDbEntity
  8
3
  6
CENTER
 62
    2
370
   30
100
AcDbLine
 10
741.4812499803253
 20
930.570137741213
 11
739.5708776471519
 21
929.7861080551789
  0
LINE
  5
89
100
AcDbEntity
  8
3
  6
DOT
 62
    2
370
   30
100
AcDbLine
 10
739.5708776471519
 20
929.7861080551789
 11
740.368195971938
 21
927.8433565299034
  0
LINE
  5
8A
100
AcDbEntity
  8
3
  6
CENTER
 62
    2
370
   30
100
AcDbLine
 10
735.0071641714238
 20
934.5717265430657
 11
739.4847438772966
 21
936.4093554440016
  0
TEXT
  5
8B
100
AcDbEntity
  8
3
  6
CENTER
 62
    2
370
   15
100
AcDbText
 10
740.3994717323669
 20
931.8232462050977
 30
0
 40
0.2
  1
A223
 50
5.101834297180176
 41
1
 51
0
  7
standard
 71
    0
 72
    1
 11
740.3994717323669
 21
931.8232462050977
 31
0
210
0
220
0
230
1
100
AcDbText
 73
    2
  0
LINE
  5
8C
100
AcDbEntity
  8
3
  6
CENTER
 62
    2
370
   30
100
AcDbLine
 10
739.7206121301514
 20
927.577583754963
 11
740.368195971938
 21
927.8433565299034
  0
LINE
  5
8D
100
AcDbEntity
  8
3
  6
CENTER
 62
    2
370
   30
100
AcDbLine
 10
740.368195971938
 20
927.8433565299034
 11
742.2785683051079
 21
928.6273862159356
  0
LINE
  5
8E
100
AcDbEntity
  8
3
  6
CENTER
 62
    2
370
   30
100
AcDbLine
 10
742.2785683051079
 20
928.6273862159356
 11
744.1617582531657
 21
924.0387921371868
  0
LINE
  5
8F
100
AcDbEntity
  8
3
  6
CENTER
 62
    2
370
   30
100
AcDbLine
 10
744.1617582531657
 20
924.0387921371868
 11
741.6038020782188
 21
922.9889896762176
  0
LINE
  5
90
100
AcDbEntity
  8
3
  6
DOT
 62
    2
370
   30
100
AcDbLine
 10
741.6038020782188
 20
922.9889896762176
 11
739.7206121301514
 21
927.577583754963
  0
TEXT
  5
91
100
AcDbEntity
  8
3
  6
DOT
 62
    2
370
   15
100
AcDbText
 10
741.9411851916594
 20
925.808187946078
 30
0
 40
0.2
  1
A286
 50
5.101834297180176
 41
1
 51
0
  7
standard
 71
    0
 72
    1
 11
741.9411851916594
 21
925.808187946078
 31
0
210
0
220
0
230
1
100
AcDbText
 73
    2
  0
LINE
  5
92
100
AcDbEntity
  8
3
  6
CENTER
 62
    2
370
   30
100
AcDbLine
 10
725.6357008614044
 20
930.7256148144535
 11
731.7692449626314
 21
933.2428626684219
  0
LINE
  5
93
100
AcDbEntity
  8
3
  6
CENTER
 62
    2
370
   30
100
AcDbLine
 10
731.7692449626314
 20
933.2428626684219
 11
733.8422726070758
 21
928.1917087027058
  0
LINE
  5
94
100
AcDbEntity
  8
3
  6
DOT
 62
    2
370
   30
100
AcDbLine
 10
733.8422726070758
 20
928.1917087027058
 11
727.7087285058487
 21
925.6744608487376
  0
LINE
  5
95
100
AcDbEntity
  8
3
  6
CONTINUOUS
 62
    2
370
   15
100
AcDbLine
 10
727.7087285058487
 20
925.6744608487376
 11
725.6357008614044
 21
930.7256148144535
  0
TEXT
  5
96
100
AcDbEntity
  8
3
  6
CONTINUOUS
 62
    2
370
   15
100
AcDbText
 10
729.73898673424
 20
929.4586617585798
 30
0
 40
0.2
  1
A218
 50
0.3894453942775726
 41
1
 51
0
  7
standard
 71
    0
 72
    1
 11
729.73898673424
 21
929.4586617585798
 31
0
210
0
220
0
230
1
100
AcDbText
 73
    2
  0
LINE
  5
97
100
AcDbEntity
  8
4
  6
DASHDOT
 62
    6
370
   50
100
AcDbLine
 10
751.539020632213
 20
930.5579101596396
 11
756.1646195019163
 21
932.4562871234162
  0
LINE
  5
98
100
AcDbEntity
  8
4
  6
DASHDOT
 62
    6
370
   50
100
AcDbLine
 10
756.1646195019163
 20
932.4562871234162
 11
757.018889135616
 21
930.3747676320496
  0
LINE
  5
99
100
AcDbEntity
  8
4
  6
DASHDOT
 62
    6
370
   50
100
AcDbLine
 10
757.018889135616
 20
930.3747676320496
 11
752.3932902659125
 21
928.476390668273
  0
LINE
  5
9A
100
AcDbEntity
  8
4
  6
DASHDOT
 62
    6
370
   50
100
AcDbLine
 10
752.3932902659125
 20
928.476390668273
 11
751.539020632213
 21
930.5579101596396
  0
TEXT
  5
9B
100
AcDbEntity
  8
4
  6
DASHDOT
 62
    6
370
   15
100
AcDbText
 10
754.2789548839144
 20
930.4663388958446
 30
0
 40
0.2
  1
A312G3S6
 50
0.3894453942775726
 41
1
 51
0
  7
standard
 71
    0
 72
    1
 11
754.2789548839144
 21
930.4663388958446
 31
0
210
0
220
0
230
1
100
AcDbText
 73
    2
  0
LINE
  5
9C
100
AcDbEntity
  8
4
  6
DASHDOT
 62
    6
370
   50
100
AcDbLine
 10
750.6847509985133
 20
932.639429651006
 11
755.3103498682168
 21
934.5378066147829
  0
LINE
  5
9D
100
AcDbEntity
  8
4
  6
DASHDOT
 62
    6
370
   50
100
AcDbLine
 10
755.3103498682168
 20
934.5378066147829
 11
756.1646195019163
 21
932.4562871234162
  0
LINE
  5
9E
100
AcDbEntity
  8
4
  6
DASHDOT
 62
    6
370
   50
100
AcDbLine
 10
756.1646195019163
 20
932.4562871234162
 11
751.539020632213
 21
930.5579101596396
  0
LINE
  5
9F
100
AcDbEntity
  8
4
  6
DASHDOT
 62
    6
370
   50
100
AcDbLine
 10
751.539020632213
 20
930.5579101596396
 11
750.6847509985133
 21
932.639429651006
  0
TEXT
  5
A0
100
AcDbEntity
  8
4
  6
DASHDOT
 62
    6
370
   15
100
AcDbText
 10
753.4246852502148
 20
932.5478583872112
 30
0
 40
0.2
  1
A312G2S6
 50
0.3894453942775726
 41
1
 51
0
  7
standard
 71
    0
 72
    1
 11
753.4246852502148
 21
932.5478583872112
 31
0
210
0
220
0
230
1
100
AcDbText
 73
    2
  0
LINE
  5
A1
100
AcDbEntity
  8
4
  6
DASHDOT
 62
    6
370
   50
100
AcDbLine
 10
749.8304813648136
 20
934.7209491423725
 11
754.4560802345171
 21
936.6193261061495
  0
LINE
  5
A2
100
AcDbEntity
  8
4
  6
DASHDOT
 62
    6
370
   50
100
AcDbLine
 10
754.4560802345171
 20
936.6193261061495
 11
755.3103498682168
 21
934.5378066147829
  0
LINE
  5
A3
100
AcDbEntity
  8
4
  6
DASHDOT
 62
    6
370
   50
100
AcDbLine
 10
755.3103498682168
 20
934.5378066147829
 11
750.6847509985133
 21
932.639429651006
  0
LINE
  5
A4
100
AcDbEntity
  8
4
  6
DASHDOT
 62
    6
370
   50
100
AcDbLine
 10
750.6847509985133
 20
932.639429651006
 11
749.8304813648136
 21
934.7209491423725
  0
TEXT
  5
A5
100
AcDbEntity
  8
4
  6
DASHDOT
 62
    6
370
   15
100
AcDbText
 10
752.5704156165152
 20
934.6293778785778
 30
0
 40
0.2
  1
A312G1S6
 50
0.3894453942775726
 41
1
 51
0
  7
standard
 71
    0
 72
    1
 11
752.5704156165152
 21
934.6293778785778
 31
0
210
0
220
0
230
1
100
AcDbText
 73
    2
  0
LINE
  5
A6
100
AcDbEntity
  8
4
  6
DASHDOT
 62
    6
370
   50
100
AcDbLine
 10
753.5511376687585
 20
925.6551714162027
 11
758.176736538462
 21
927.5535483799796
  0
LINE
  5
A7
100
AcDbEntity
  8
4
  6
DASHDOT
 62
    6
370
   50
100
AcDbLine
 10
758.176736538462
 20
927.5535483799796
 11
759.0310061721615
 21
925.472028888613
  0
LINE
  5
A8
100
AcDbEntity
  8
4
  6
DASHDOT
 62
    6
370
   50
100
AcDbLine
 10
759.0310061721615
 20
925.472028888613
 11
754.4054073024582
 21
923.5736519248361
  0
LINE
  5
A9
100
AcDbEntity
  8
4
  6
DASHDOT
 62
    6
370
   50
100
AcDbLine
 10
754.4054073024582
 20
923.5736519248361
 11
753.5511376687585
 21
925.6551714162027
  0
TEXT
  5
AA
100
AcDbEntity
  8
4
  6
DASHDOT
 62
    6
370
   15
100
AcDbText
 10
756.29107192046
 20
925.5636001524077
 30
0
 40
0.2
  1
A312G5S3
 50
0.3894453942775726
 41
1
 51
0
  7
standard
 71
    0
 72
    1
 11
756.29107192046
 21
925.5636001524077
 31
0
210
0
220
0
230
1
100
AcDbText
 73
    2
  0
LINE
  5
AB
100
AcDbEntity
  8
4
  6
DASHDOT
 62
    6
370
   50
100
AcDbLine
 10
752.6968680350591
 20
927.7366909075691
 11
757.3224669047623
 21
929.6350678713462
  0
LINE
  5
AC
100
AcDbEntity
  8
4
  6
DASHDOT
 62
    6
370
   50
100
AcDbLine
 10
757.3224669047623
 20
929.6350678713462
 11
758.176736538462
 21
927.5535483799796
  0
LINE
  5
AD
100
AcDbEntity
  8
4
  6
DASHDOT
 62
    6
370
   50
100
AcDbLine
 10
758.176736538462
 20
927.5535483799796
 11
753.5511376687585
 21
925.6551714162027
  0
LINE
  5
AE
100
AcDbEntity
  8
4
  6
DASHDOT
 62
    6
370
   50
100
AcDbLine
 10
753.5511376687585
 20
925.6551714162027
 11
752.6968680350591
 21
927.7366909075691
  0
TEXT
  5
AF
100
AcDbEntity
  8
4
  6
DASHDOT
 62
    6
370
   15
100
AcDbText
 10
755.4368022867606
 20
927.6451196437745
 30
0
 40
0.2
  1
A312G4S6
 50
0.3894453942775726
 41
1
 51
0
  7
standard
 71
    0
 72
    1
 11
755.4368022867606
 21
927.6451196437745
 31
0
210
0
220
0
230
1
100
AcDbText
 73
    2
  0
LINE
  5
B0
100
AcDbEntity
  8
4
  6
DASHDOT
 62
    6
370
   50
100
AcDbLine
 10
731.7183110037585
 20
916.694832147176
 11
736.3439098734617
 21
918.5932091109529
  0
LINE
  5
B1
100
AcDbEntity
  8
4
  6
DASHDOT
 62
    6
370
   50
100
AcDbLine
 10
736.3439098734617
 20
918.5932091109529
 11
737.1981795071614
 21
916.5116896195863
  0
LINE
  5
B2
100
AcDbEntity
  8
4
  6
DASHDOT
 62
    6
370
   50
100
AcDbLine
 10
737.1981795071614
 20
916.5116896195863
 11
732.5725806374579
 21
914.6133126558094
  0
LINE
  5
B3
100
AcDbEntity
  8
4
  6
DASHDOT
 62
    6
370
   50
100
AcDbLine
 10
732.5725806374579
 20
914.6133126558094
 11
731.7183110037585
 21
916.694832147176
  0
TEXT
  5
B4
100
AcDbEntity
  8
4
  6
DASHDOT
 62
    6
370
   15
100
AcDbText
 10
734.4582452554598
 20
916.6032608833812
 30
0
 40
0.2
  1
A312G6S1
 50
0.3894453942775726
 41
1
 51
0
  7
standard
 71
    0
 72
    1
 11
734.4582452554598
 21
916.6032608833812
 31
0
210
0
220
0
230
1
100
AcDbText
 73
    2
  0
LINE
  5
B5
100
AcDbEntity
  8
4
  6
DASHDOT
 62
    6
370
   50
100
AcDbLine
 10
730.8640413700588
 20
918.7763516385427
 11
735.4896402397623
 21
920.6747286023193
  0
LINE
  5
B6
100
AcDbEntity
  8
4
  6
DASHDOT
 62
    6
370
   50
100
AcDbLine
 10
735.4896402397623
 20
920.6747286023193
 11
736.3439098734617
 21
918.5932091109529
  0
LINE
  5
B7
100
AcDbEntity
  8
4
  6
DASHDOT
 62
    6
370
   50
100
AcDbLine
 10
736.3439098734617
 20
918.5932091109529
 11
731.7183110037585
 21
916.694832147176
  0
LINE
  5
B8
100
AcDbEntity
  8
4
  6
DASHDOT
 62
    6
370
   50
100
AcDbLine
 10
731.7183110037585
 20
916.694832147176
 11
730.8640413700588
 21
918.7763516385427
  0
TEXT
  5
B9
100
AcDbEntity
  8
4
  6
DASHDOT
 62
    6
370
   15
100
AcDbText
 10
733.6039756217602
 20
918.6847803747478
 30
0
 40
0.2
  1
A312G7S4
 50
0.3894453942775726
 41
1
 51
0
  7
standard
 71
    0
 72
    1
 11
733.6039756217602
 21
918.6847803747478
 31
0
210
0
220
0
230
1
100
AcDbText
 73
    2
  0
LINE
  5
BA
100
AcDbEntity
  8
4
  6
DASHDOT
 62
    6
370
   50
100
AcDbLine
 10
728.8519243335132
 20
923.6790903819793
 11
733.4775232032165
 21
925.5774673457562
  0
LINE
  5
BB
100
AcDbEntity
  8
4
  6
DASHDOT
 62
    6
370
   50
100
AcDbLine
 10
733.4775232032165
 20
925.5774673457562
 11
734.3317928369162
 21
923.4959478543898
  0
LINE
  5
BC
100
AcDbEntity
  8
4
  6
DASHDOT
 62
    6
370
   50
100
AcDbLine
 10
734.3317928369162
 20
923.4959478543898
 11
729.7061939672127
 21
921.5975708906127
  0
LINE
  5
BD
100
AcDbEntity
  8
4
  6
DASHDOT
 62
    6
370
   50
100
AcDbLine
 10
729.7061939672127
 20
921.5975708906127
 11
728.8519243335132
 21
923.6790903819793
  0
TEXT
  5
BE
100
AcDbEntity
  8
4
  6
DASHDOT
 62
    6
370
   15
100
AcDbText
 10
731.5918585852145
 20
923.5875191181844
 30
0
 40
0.2
  1
A312G9S4
 50
0.3894453942775726
 41
1
 51
0
  7
standard
 71
    0
 72
    1
 11
731.5918585852145
 21
923.5875191181844
 31
0
210
0
220
0
230
1
100
AcDbText
 73
    2
  0
LINE
  5
BF
100
AcDbEntity
  8
4
  6
DASHDOT
 62
    6
370
   50
100
AcDbLine
 10
727.9976546998136
 20
925.760609873346
 11
732.623253569517
 21
927.6589868371226
  0
LINE
  5
C0
100
AcDbEntity
  8
4
  6
DASHDOT
 62
    6
370
   50
100
AcDbLine
 10
732.623253569517
 20
927.6589868371226
 11
733.4775232032165
 21
925.5774673457562
  0
LINE
  5
C1
100
AcDbEntity
  8
4
  6
DASHDOT
 62
    6
370
   50
100
AcDbLine
 10
733.4775232032165
 20
925.5774673457562
 11
728.8519243335132
 21
923.6790903819793
  0
LINE
  5
C2
100
AcDbEntity
  8
4
  6
DASHDOT
 62
    6
370
   50
100
AcDbLine
 10
728.8519243335132
 20
923.6790903819793
 11
727.9976546998136
 21
925.760609873346
  0
TEXT
  5
C3
100
AcDbEntity
  8
4
  6
DASHDOT
 62
    6
370
   15
100
AcDbText
 10
730.7375889515149
 20
925.669038609551
 30
0
 40
0.2
  1
A312G10S4
 50
0.3894453942775726
 41
1
 51
0
  7
standard
 71
    0
 72
    1
 11
730.7375889515149
 21
925.669038609551
 31
0
210
0
220
0
230
1
100
AcDbText
 73
    2
  0
LINE
  5
C4
100
AcDbEntity
  8
4
  6
DASHDOT
 62
    6
370
   50
100
AcDbLine
 10
729.7061939672127
 20
921.5975708906127
 11
734.3317928369162
 21
923.4959478543898
  0
LINE
  5
C5
100
AcDbEntity
  8
4
  6
DASHDOT
 62
    6
370
   50
100
AcDbLine
 10
734.3317928369162
 20
923.4959478543898
 11
735.1860624706156
 21
921.4144283630231
  0
LINE
  5
C6
100
AcDbEntity
  8
4
  6
DASHDOT
 62
    6
370
   50
100
AcDbLine
 10
735.1860624706156
 20
921.4144283630231
 11
730.5604636009124
 21
919.5160513992461
  0
LINE
  5
C7
100
AcDbEntity
  8
4
  6
DASHDOT
 62
    6
370
   50
100
AcDbLine
 10
730.5604636009124
 20
919.5160513992461
 11
729.7061939672127
 21
921.5975708906127
  0
TEXT
  5
C8
100
AcDbEntity
  8
4
  6
DASHDOT
 62
    6
370
   15
100
AcDbText
 10
732.4461282189142
 20
921.5059996268179
 30
0
 40
0.2
  1
A312G8S4
 50
0.3894453942775726
 41
1
 51
0
  7
standard
 71
    0
 72
    1
 11
732.4461282189142
 21
921.5059996268179
 31
0
210
0
220
0
230
1
100
AcDbText
 73
    2
  0
LINE
  5
C9
100
AcDbEntity
  8
4
  6
CONTINUOUS
 62
    6
370
   50
100
AcDbLine
 10
754.5317712360991
 20
923.5818121225603
 11
755.2903694507304
 21
923.8931459446197
  0
LINE
  5
CA
100
AcDbEntity
  8
4
  6
CONTINUOUS
 62
    6
370
   50
100
AcDbLine
 10
755.2903694507304
 20
923.8931459446197
 11
755.5409552099489
 21
923.2825668938189
  0
LINE
  5
CB
100
AcDbEntity
  8
4
  6
CONTINUOUS
 62
    6
370
   50
100
AcDbLine
 10
755.5409552099489
 20
923.2825668938189
 11
754.7823569953176
 21
922.9712330717595
  0
LINE
  5
CC
100
AcDbEntity
  8
4
  6
CONTINUOUS
 62
    6
370
   50
100
AcDbLine
 10
754.7823569953176
 20
922.9712330717595
 11
754.5317712360991
 21
923.5818121225603
  0
TEXT
  5
CD
100
AcDbEntity
  8
4
  6
CONTINUOUS
 62
    6
370
   15
100
AcDbText
 10
755.036363223024
 20
923.4321895081895
 30
0
 40
0.04898979485566356
  1
A258
 50
0.3894453942775726
 41
1
 51
0
  7
standard
 71
    0
 72
    1
 11
755.036363223024
 21
923.4321895081895
 31
0
210
0
220
0
230
1
100
AcDbText
 73
    2
  0
LINE
  5
CE
100
AcDbEntity
  8
4
  6
CONTINUOUS
 62
    6
370
   50
100
AcDbLine
 10
752.5232884084231
 20
928.4756957267067
 11
753.2818866230544
 21
928.7870295487661
  0
LINE
  5
CF
100
AcDbEntity
  8
4
  6
CONTINUOUS
 62
    6
370
   50
100
AcDbLine
 10
753.2818866230544
 20
928.7870295487661
 11
753.532472382273
 21
928.1764504979652
  0
LINE
  5
D0
100
AcDbEntity
  8
4
  6
CONTINUOUS
 62
    6
370
   50
100
AcDbLine
 10
753.532472382273
 20
928.1764504979652
 11
752.7738741676417
 21
927.8651166759058
  0
LINE
  5
D1
100
AcDbEntity
  8
4
  6
CONTINUOUS
 62
    6
370
   50
100
AcDbLine
 10
752.7738741676417
 20
927.8651166759058
 11
752.5232884084231
 21
928.4756957267067
  0
TEXT
  5
D2
100
AcDbEntity
  8
4
  6
CONTINUOUS
 62
    6
370
   15
100
AcDbText
 10
753.027880395348
 20
928.326073112336
 30
0
 40
0.04898979485566356
  1
A258
 50
0.3894453942775726
 41
1
 51
0
  7
standard
 71
    0
 72
    1
 11
753.027880395348
 21
928.326073112336
 31
0
210
0
220
0
230
1
100
AcDbText
 73
    2
  0
LINE
  5
D3
100
AcDbEntity
  8
4
  6
CONTINUOUS
 62
    6
370
   50
100
AcDbLine
 10
734.2984288617916
 20
920.9960904894259
 11
735.038524680944
 21
921.29983080363
  0
LINE
  5
D4
100
AcDbEntity
  8
4
  6
CONTINUOUS
 62
    6
370
   50
100
AcDbLine
 10
735.038524680944
 20
921.29983080363
 11
735.2891104401625
 21
920.6892517528291
  0
LINE
  5
D5
100
AcDbEntity
  8
4
  6
CONTINUOUS
 62
    6
370
   50
100
AcDbLine
 10
735.2891104401625
 20
920.6892517528291
 11
734.5490146210101
 21
920.3855114386248
  0
LINE
  5
D6
100
AcDbEntity
  8
4
  6
CONTINUOUS
 62
    6
370
   50
100
AcDbLine
 10
734.5490146210101
 20
920.3855114386248
 11
734.2984288617916
 21
920.9960904894259
  0
TEXT
  5
D7
100
AcDbEntity
  8
4
  6
CONTINUOUS
 62
    6
370
   15
100
AcDbText
 10
734.793769650977
 20
920.8426711211275
 30
0
 40
0.04853406592853679
  1
A258
 50
0.3894453942775726
 41
1
 51
0
  7
standard
 71
    0
 72
    1
 11
734.793769650977
 21
920.8426711211275
 31
0
210
0
220
0
230
1
100
AcDbText
 73
    2
  0
ENDSEC
  0
SECTION
  2
OBJECTS
  0
DICTIONARY
  5
C
330
0
100
AcDbDictionary
281
    1
  3
ACAD_GROUP
350
D
  0
DICTIONARY
  5
D
330
C
100
AcDbDictionary
281
    1
  0
ENDSEC
  0
EOF
