<svg xmlns="http://www.w3.org/2000/svg" xmlns:svgjs="http://svgjs.com/svgjs" xmlns:xlink="http://www.w3.org/1999/xlink" width="288" height="288"><svg xmlns="http://www.w3.org/2000/svg" xmlns:svgjs="http://svgjs.com/svgjs" xmlns:xlink="http://www.w3.org/1999/xlink" width="288" height="288" viewBox="0 0 288 288"><svg xmlns="http://www.w3.org/2000/svg" width="288" class="svg-icon" style="width:1em;height:1em;vertical-align:middle" height="288" fill="currentColor" overflow="hidden" viewBox="0 0 1024 1024"><path fill="#fff" d="M912.221091 1018.996364 111.778909 1018.996364 111.778909 471.226182l132.328727 0 0-201.658182c0-145.873455 120.180364-264.564364 267.915636-264.564364 147.712 0 267.892364 118.690909 267.892364 264.564364l0 63.627636-44.288 0 0-63.627636c0-121.460364-100.305455-220.276364-223.581091-220.276364-123.298909 0-223.627636 98.816-223.627636 220.276364l0 201.658182 623.825455 0L912.244364 1018.996364zM156.066909 974.708364l711.866182 0L867.933091 515.490909 156.066909 515.490909 156.066909 974.708364z" class="color000 svgShape"/></svg></svg></svg>