0
SECTION
2
HEADER
9
$HANDSEED
5
b1
9
$INSUNITS
70
0
9
$ACADVER
1
AC1021
0
ENDSEC
0
SECTION
2
CLASSES
0
ENDSEC
0
SECTION
2
TABLES
0
TABLE
2
LTYPE
5
1
100
AcDbSymbolTable
70
5
0
LTYPE
5
5
100
AcDbSymbolTableRecord
100
AcDbLinetypeTableRecord
2
CONTINUOUS
3
______
70
0
72
65
73
0
40
0
0
LTYPE
5
6
100
AcDbSymbolTableRecord
100
AcDbLinetypeTableRecord
2
DASHED
3
_ _ _ 
70
0
72
65
73
2
40
10
49
5
74
0
49
-5
74
0
0
LTYPE
5
7
100
AcDbSymbolTableRecord
100
AcDbLinetypeTableRecord
2
DOTTED
3
. . . 
70
0
72
65
73
2
40
5
49
0
74
0
49
-5
74
0
0
LTYPE
5
9f
100
AcDbSymbolTableRecord
100
AcDbLinetypeTableRecord
2
ByBlock
3

70
0
72
65
73
0
40
0
0
LTYPE
5
a0
100
AcDbSymbolTableRecord
100
AcDbLinetypeTableRecord
2
ByLayer
3

70
0
72
65
73
0
40
0
0
ENDTAB
0
TABLE
2
LAYER
5
2
100
AcDbSymbolTable
70
5
0
LAYER
5
8
100
AcDbSymbolTableRecord
100
AcDbLayerTableRecord
2
0
62
7
70
0
6
CONTINUOUS
390
1
0
LAYER
5
9
100
AcDbSymbolTableRecord
100
AcDbLayerTableRecord
2
DefArea
62
1
70
0
6
CONTINUOUS
390
1
0
LAYER
5
a
100
AcDbSymbolTableRecord
100
AcDbLayerTableRecord
2
Out
62
1
70
0
6
CONTINUOUS
390
1
0
LAYER
5
b
100
AcDbSymbolTableRecord
100
AcDbLayerTableRecord
2
MainBoundary
62
3
70
0
6
CONTINUOUS
390
1
0
LAYER
5
c
100
AcDbSymbolTableRecord
100
AcDbLayerTableRecord
2
Mabar
62
6
70
0
6
CONTINUOUS
390
1
0
ENDTAB
0
TABLE
2
VPORT
5
a1
100
AcDbSymbolTable
70
1
0
VPORT
5
a7
100
AcDbSymbolTableRecord
100
AcDbViewportTableRecord
2
*ACTIVE
40
1000
70
0
0
ENDTAB
0
TABLE
2
STYLE
5
a2
100
AcDbSymbolTable
70
1
0
STYLE
5
a8
100
AcDbSymbolTableRecord
100
AcDbTextStyleTableRecord
2
standard
70
0
40
0
41
1
50
0
71
0
42
1
3
standard
4

0
ENDTAB
0
TABLE
2
VIEW
5
a3
100
AcDbSymbolTable
70
0
0
ENDTAB
0
TABLE
2
UCS
5
a4
100
AcDbSymbolTable
70
0
0
ENDTAB
0
TABLE
2
APPID
5
a5
100
AcDbSymbolTable
70
1
0
APPID
5
a9
100
AcDbSymbolTableRecord
100
AcDbRegAppTableRecord
2
ACAD
70
0
0
ENDTAB
0
TABLE
2
DIMSTYLE
5
a6
100
AcDbSymbolTable
100
AcDbDimStyleTable
70
0
71
1
0
ENDTAB
0
TABLE
2
BLOCK_RECORD
5
3
100
AcDbSymbolTable
70
2
0
BLOCK_RECORD
5
ac
100
AcDbSymbolTableRecord
100
AcDbBlockTableRecord
2
*Model_Space
70
0
280
1
281
0
0
BLOCK_RECORD
5
af
100
AcDbSymbolTableRecord
100
AcDbBlockTableRecord
2
*Paper_Space
70
0
280
1
281
0
0
ENDTAB
0
ENDSEC
0
SECTION
2
BLOCKS
0
BLOCK
5
aa
100
AcDbEntity
100
AcDbBlockBegin
2
*Model_Space
70
0
10
0
20
0
30
0
3
*Model_Space
1

0
ENDBLK
5
ab
100
AcDbEntity
100
AcDbBlockEnd
0
BLOCK
5
ad
100
AcDbEntity
100
AcDbBlockBegin
2
*Paper_Space
70
0
10
0
20
0
30
0
3
*Paper_Space
1

0
ENDBLK
5
ae
100
AcDbEntity
100
AcDbBlockEnd
0
ENDSEC
0
SECTION
2
ENTITIES
0
TEXT
5
f
100
AcDbEntity
100
AcDbText
8
0
10
632071.1846619854
20
3722271.939044309
30
0
40
0.1
1
80111001520F19M0G0AA161.87XX11.91YY17.09DD8011100_111_226BB161.88EE0II03RR01LL02OO99*
50
83.31753412347575
100
AcDbText
0
TEXT
5
10
100
AcDbEntity
100
AcDbText
8
0
10
632081.047137744
20
3722270.752802543
30
0
40
0.1
1
80111001520F18MG
50
83.34760975032503
100
AcDbText
0
TEXT
5
11
100
AcDbEntity
100
AcDbText
8
0
10
632115.6808508785
20
3722261.584238731
30
0
40
0.1
1
تقاطع خیابان
50
-54.18612616071994
100
AcDbText
0
TEXT
5
14
100
AcDbEntity
100
AcDbText
8
0
10
632120.6473168138
20
3722277.731250692
30
0
40
0.1
1
80111001520F2M0G0AA62.04XX10.47YY14.22DD8011100_123_173BB62.14EE0*
50
39.874735447996386
100
AcDbText
0
TEXT
5
18
100
AcDbEntity
100
AcDbText
8
0
10
632075.1093504569
20
3722258.7939257626
30
0
40
0.1
1
80111001520F17M0G0AA144.19XX20.8YY12.09DD8011100_111_347BB144.18EE0II02RR01LL02OO99*
50
-22.181966258992247
100
AcDbText
0
TEXT
5
1a
100
AcDbEntity
100
AcDbText
8
0
10
632041.0426387234
20
3722272.5278063724
30
0
40
0.1
1
80111001520F22M0G0AA252.83XX13.31YY26.64DD8011100_111_344BB252.83EE0*
50
82.38786084777047
100
AcDbText
0
TEXT
5
1c
100
AcDbEntity
100
AcDbText
8
0
10
632031.7361224407
20
3722274.6944668707
30
0
40
0.1
1
80111001520F24M23G0AA218.95XX11.93YY26.72DD8011100_136_22BB218EE0II03RR01LL02OO99*
50
83.9909940365248
100
AcDbText
0
TEXT
5
1e
100
AcDbEntity
100
AcDbText
8
0
10
632061.0813822625
20
3722272.2428374905
30
0
40
0.1
1
80111001520F20MGX632061Y3722274
50
82.5232132327896
100
AcDbText
0
TEXT
5
1f
100
AcDbEntity
100
AcDbText
8
0
10
632051.0075137524
20
3722272.085508784
30
0
40
0.1
1
80111001520F21M0G0AA200.47XX12.54YY20.91DD8011100_111_319BB200.5EE0II03RR01LL02OO99*
50
82.52321323278966
100
AcDbText
0
LINE
5
26
100
AcDbEntity
100
AcDbLine
8
0
10
632075.2600000004
20
3722263.399999998
30
0
11
632085.0499999996
21
3722262.319999999
31
0
0
LINE
5
28
100
AcDbEntity
100
AcDbLine
8
0
10
632065.2200000007
20
3722264.47
30
0
11
632064.6499999996
21
3722260.94
31
0
0
LINE
5
2b
100
AcDbEntity
100
AcDbLine
8
0
10
632115.2699999996
20
3722262.54
30
0
11
632116.54
21
3722260.7799999993
31
0
0
LINE
5
2c
100
AcDbEntity
100
AcDbLine
8
0
10
632115.2699999996
20
3722262.54
30
0
11
632115.9400000003
21
3722269.210000001
31
0
0
LINE
5
2e
100
AcDbEntity
100
AcDbLine
8
0
10
632117.3800000004
20
3722283.4399999995
30
0
11
632115.9400000003
21
3722269.210000001
31
0
0
LINE
5
30
100
AcDbEntity
100
AcDbLine
8
0
10
632029.2000000003
20
3722264.45
30
0
11
632034.3700000001
21
3722260.0499999993
31
0
0
LINE
5
31
100
AcDbEntity
100
AcDbLine
8
0
10
632029.2000000003
20
3722264.45
30
0
11
632025.8799999999
21
3722268.3499999996
31
0
0
LINE
5
32
100
AcDbEntity
100
AcDbLine
8
0
10
632034.3700000001
20
3722260.0499999993
30
0
11
632037.8099999998
21
3722285.7899999996
31
0
0
LINE
5
34
100
AcDbEntity
100
AcDbLine
8
0
10
632054.699999999
20
3722262.0700000003
30
0
11
632064.6499999996
21
3722260.94
31
0
0
LINE
5
35
100
AcDbEntity
100
AcDbLine
8
0
10
632054.699999999
20
3722262.0700000003
30
0
11
632051.9500000004
21
3722261.9599999986
31
0
0
LINE
5
36
100
AcDbEntity
100
AcDbLine
8
0
10
632054.699999999
20
3722262.0700000003
30
0
11
632057.2500000003
21
3722281.500000001
31
0
0
LINE
5
37
100
AcDbEntity
100
AcDbLine
8
0
10
632051.9500000004
20
3722261.9599999986
30
0
11
632044.7099999993
21
3722261.6800000006
31
0
0
LINE
5
39
100
AcDbEntity
100
AcDbLine
8
0
10
632025.8799999999
20
3722268.3499999996
30
0
11
632027.6400000007
21
3722284.6899999995
31
0
0
LINE
5
3a
100
AcDbEntity
100
AcDbLine
8
0
10
632044.7099999993
20
3722261.6800000006
30
0
11
632047.4599999998
21
3722282.5999999987
31
0
0
LINE
5
3b
100
AcDbEntity
100
AcDbLine
8
0
10
632047.4599999998
20
3722282.5999999987
30
0
11
632057.2500000003
21
3722281.500000001
31
0
0
LINE
5
42
100
AcDbEntity
100
AcDbLine
8
0
10
632077.1099999999
20
3722279.1900000004
30
0
11
632084.9800000008
21
3722278.309999999
31
0
0
LINE
5
43
100
AcDbEntity
100
AcDbLine
8
0
10
632084.9800000008
20
3722278.309999999
30
0
11
632086.6699999995
21
3722276.209999999
31
0
0
LINE
5
44
100
AcDbEntity
100
AcDbLine
8
0
10
632086.6699999995
20
3722276.209999999
30
0
11
632085.0499999996
21
3722262.319999999
31
0
0
LINE
5
84
100
AcDbEntity
100
AcDbLine
8
0
10
632033.92
20
3722259.39
30
0
11
632034.3700000001
21
3722260.0499999993
31
0
0
LINE
5
85
100
AcDbEntity
100
AcDbLine
8
0
10
632069.97
20
3722258.08
30
0
11
632064.5800000002
21
3722260.5
31
0
0
LINE
5
86
100
AcDbEntity
100
AcDbLine
8
0
10
632064.5800000002
20
3722260.5
30
0
11
632064.6499999996
21
3722260.94
31
0
0
LINE
5
87
100
AcDbEntity
100
AcDbLine
8
0
10
632051.9500000004
20
3722261.9599999986
30
0
11
632051.2899999992
21
3722256.65
31
0
0
LINE
5
8a
100
AcDbEntity
100
AcDbLine
8
0
10
632085.380000001
20
3722262.2799999993
30
0
11
632085.0499999996
21
3722262.319999999
31
0
0
LINE
5
8e
100
AcDbEntity
100
AcDbLine
8
0
10
632034.3700000001
20
3722260.0499999993
30
0
11
632037.2800000001
21
3722259.149999999
31
0
0
LINE
5
8f
100
AcDbEntity
100
AcDbLine
8
0
10
632037.2800000001
20
3722259.149999999
30
0
11
632044.7099999993
21
3722261.6800000006
31
0
0
LINE
5
90
100
AcDbEntity
100
AcDbLine
8
0
10
632047.4599999998
20
3722282.5999999987
30
0
11
632047.6900000006
21
3722284.6399999997
31
0
0
LINE
5
91
100
AcDbEntity
100
AcDbLine
8
0
10
632047.6900000006
20
3722284.6399999997
30
0
11
632037.8099999998
21
3722285.7899999996
31
0
0
LINE
5
94
100
AcDbEntity
100
AcDbLine
8
0
10
632037.8099999998
20
3722285.7899999996
30
0
11
632027.8600000009
21
3722286.7799999993
31
0
0
LINE
5
95
100
AcDbEntity
100
AcDbLine
8
0
10
632027.8600000009
20
3722286.7799999993
30
0
11
632027.6400000007
21
3722284.6899999995
31
0
0
LINE
5
96
100
AcDbEntity
100
AcDbLine
8
0
10
632067.1971999998
20
3722280.490300001
30
0
11
632067.4399999996
21
3722282.4700000007
31
0
0
LINE
5
97
100
AcDbEntity
100
AcDbLine
8
0
10
632067.4399999996
20
3722282.4700000007
30
0
11
632057.5199999996
21
3722283.539999999
31
0
0
LINE
5
98
100
AcDbEntity
100
AcDbLine
8
0
10
632057.5199999996
20
3722283.539999999
30
0
11
632057.2500000003
21
3722281.500000001
31
0
0
LWPOLYLINE
5
d
100
AcDbEntity
100
AcDbPolyline
8
DefArea
6
ByLayer
62
256
370
-1
90
5
70
0
10
632120.7857446942
20
3722288.5877219983
10
632121.2120797731
20
3722257.633727835
10
632022.7537168605
20
3722256.2781530367
10
632022.3276996749
20
3722287.2321416484
10
632120.7857446942
20
3722288.5877219983
0
TEXT
5
e
100
AcDbEntity
100
AcDbText
8
Out
10
632074.8521165274
20
3722249.0252927174
30
0
40
0.1
1
80111001515F92MG
50
-43.95432906962816
100
AcDbText
0
TEXT
5
12
100
AcDbEntity
100
AcDbText
8
Out
10
632163.3409416891
20
3722249.1814879915
30
0
40
0.1
1
خیابان موجود
50
-18.43494881866451
100
AcDbText
0
TEXT
5
13
100
AcDbEntity
100
AcDbText
8
Out
10
632125.4879577371
20
3722287.0064300033
30
0
40
0.1
1
80111001520F1M0G0
50
-17.021789333737445
100
AcDbText
0
TEXT
5
15
100
AcDbEntity
100
AcDbText
8
Out
10
632122.7408008184
20
3722269.4689067234
30
0
40
0.1
1
80111001536F5M0G0AA227.47XX15.01YY21.45DD8011100_123_170BB232.01EE0*
50
86.14577663816425
100
AcDbText
0
TEXT
5
16
100
AcDbEntity
100
AcDbText
8
Out
10
632001.9320475954
20
3722237.747167035
30
0
40
0.1
1
کوچه شهید نعمت شمس الدین وندی
50
24.11769529238336
100
AcDbText
0
TEXT
5
17
100
AcDbEntity
100
AcDbText
8
Out
10
632056.7990987145
20
3722251.58315384
30
0
40
0.1
1
80111001515F158M10G2AA298.29XX25.56YY22.58DD8011100_D1515_R158BB298.26EE0II03RR01LL02OO99*
50
49.96310030555151
100
AcDbText
0
TEXT
5
19
100
AcDbEntity
100
AcDbText
8
Out
10
632019.7144595034
20
3722264.230223214
30
0
40
0.1
1
80111001515F61M0G0AA160.88DD8011100_145_22BB160.89EE-45*
50
34.70500155062746
100
AcDbText
0
TEXT
5
1b
100
AcDbEntity
100
AcDbText
8
Out
10
632020.7231726075
20
3722278.784703059
30
0
40
0.1
1
80111001520F23M0G0AA139.84XX16.85YY18.06DD8011100_122_99BB139.46EE0II03RR02LL02OO99*
50
-49.59680752733311
100
AcDbText
0
TEXT
5
1d
100
AcDbEntity
100
AcDbText
8
Out
10
632044.2877553151
20
3722255.9047983163
30
0
40
0.1
1
80111001515F157M10G1AA125.61XX18.02YY12.95DD8011100_D1515_R157BB125.62EE0II03RR01LL02OO99*
50
-44.72533393641072
100
AcDbText
0
TEXT
5
20
100
AcDbEntity
100
AcDbText
8
Out
10
632084.4932885466
20
3722298.5163444323
30
0
40
0.1
1
80111001520F9M0G0II02RR01LL02OO99AA202.46XX
50
83.97774607962549
100
AcDbText
0
LINE
5
21
100
AcDbEntity
100
AcDbLine
8
Out
10
632083.95
20
3722252.3800000013
30
0
11
632069.97
21
3722258.08
31
0
0
LINE
5
22
100
AcDbEntity
100
AcDbLine
8
Out
10
632064.8700000001
20
3722252.0100000002
30
0
11
632069.97
21
3722258.08
31
0
0
LINE
5
23
100
AcDbEntity
100
AcDbLine
8
Out
10
632064.8700000001
20
3722252.0100000002
30
0
11
632054.0299999997
21
3722239.4799999995
31
0
0
LINE
5
2d
100
AcDbEntity
100
AcDbLine
8
Out
10
632126.4099999995
20
3722280.1899999995
30
0
11
632117.3800000004
21
3722283.4399999995
31
0
0
LINE
5
2f
100
AcDbEntity
100
AcDbLine
8
Out
10
632017.0999999996
20
3722256.07
30
0
11
632029.2000000003
21
3722264.45
31
0
0
LINE
5
33
100
AcDbEntity
100
AcDbLine
8
Out
10
632044.4000000004
20
3722249.0100000002
30
0
11
632054.0299999997
21
3722239.4799999995
31
0
0
LINE
5
38
100
AcDbEntity
100
AcDbLine
8
Out
10
632022.2199999997
20
3722272.6499999994
30
0
11
632025.8799999999
21
3722268.3499999996
31
0
0
LINE
5
3c
100
AcDbEntity
100
AcDbLine
8
Out
10
632064.8700000001
20
3722252.0100000002
30
0
11
632077.9799999996
21
3722239.37
31
0
0
LINE
5
3d
100
AcDbEntity
100
AcDbLine
8
Out
10
632077.9799999996
20
3722239.37
30
0
11
632078.1399999999
21
3722239.5199999996
31
0
0
LINE
5
3e
100
AcDbEntity
100
AcDbLine
8
Out
10
632078.1399999999
20
3722239.5199999996
30
0
11
632083.1299999994
21
3722244.65
31
0
0
LINE
5
3f
100
AcDbEntity
100
AcDbLine
8
Out
10
632083.1299999994
20
3722244.65
30
0
11
632083.95
21
3722252.3800000013
31
0
0
LINE
5
45
100
AcDbEntity
100
AcDbLine
8
Out
10
632128.9399999997
20
3722259.79
30
0
11
632150.3800000002
21
3722256.3099999996
31
0
0
LINE
5
46
100
AcDbEntity
100
AcDbLine
8
Out
10
632150.3800000002
20
3722256.3099999996
30
0
11
632150.2200000009
21
3722255.259999998
31
0
0
LINE
5
47
100
AcDbEntity
100
AcDbLine
8
Out
10
632150.2200000009
20
3722255.259999998
30
0
11
632169.1300000001
21
3722252.1900000004
31
0
0
LINE
5
48
100
AcDbEntity
100
AcDbLine
8
Out
10
632169.1300000001
20
3722252.1900000004
30
0
11
632175.0200000005
21
3722251.33
31
0
0
LINE
5
49
100
AcDbEntity
100
AcDbLine
8
Out
10
632175.0200000005
20
3722251.33
30
0
11
632187.44
21
3722249.38
31
0
0
LINE
5
4a
100
AcDbEntity
100
AcDbLine
8
Out
10
632187.44
20
3722249.38
30
0
11
632212.7200000007
21
3722245.3499999996
31
0
0
LINE
5
4b
100
AcDbEntity
100
AcDbLine
8
Out
10
632212.7200000007
20
3722245.3499999996
30
0
11
632213.5700000008
21
3722245.7800000003
31
0
0
LINE
5
4c
100
AcDbEntity
100
AcDbLine
8
Out
10
632213.5700000008
20
3722245.7800000003
30
0
11
632208.4699999999
21
3722237.22
31
0
0
LINE
5
4d
100
AcDbEntity
100
AcDbLine
8
Out
10
632208.4699999999
20
3722237.22
30
0
11
632188.6699999992
21
3722240.06
31
0
0
LINE
5
4e
100
AcDbEntity
100
AcDbLine
8
Out
10
632188.6699999992
20
3722240.06
30
0
11
632176.8600000006
21
3722242.03
31
0
0
LINE
5
4f
100
AcDbEntity
100
AcDbLine
8
Out
10
632176.8600000006
20
3722242.03
30
0
11
632177.0300000007
21
3722243.0199999996
31
0
0
LINE
5
50
100
AcDbEntity
100
AcDbLine
8
Out
10
632177.0300000007
20
3722243.0199999996
30
0
11
632166.2200000006
21
3722244.88
31
0
0
LINE
5
51
100
AcDbEntity
100
AcDbLine
8
Out
10
632166.2200000006
20
3722244.88
30
0
11
632166.0199999996
21
3722243.68
31
0
0
LINE
5
52
100
AcDbEntity
100
AcDbLine
8
Out
10
632166.0199999996
20
3722243.68
30
0
11
632155.9799999993
21
3722245.269999999
31
0
0
LINE
5
53
100
AcDbEntity
100
AcDbLine
8
Out
10
632155.9799999993
20
3722245.269999999
30
0
11
632156.1700000013
21
3722246.41
31
0
0
LINE
5
54
100
AcDbEntity
100
AcDbLine
8
Out
10
632156.1700000013
20
3722246.41
30
0
11
632137.3100000003
21
3722249.32
31
0
0
LINE
5
55
100
AcDbEntity
100
AcDbLine
8
Out
10
632137.3100000003
20
3722249.32
30
0
11
632137.1800000006
21
3722248.2900000005
31
0
0
LINE
5
56
100
AcDbEntity
100
AcDbLine
8
Out
10
632137.1800000006
20
3722248.2900000005
30
0
11
632126.22
21
3722250.0399999996
31
0
0
LINE
5
57
100
AcDbEntity
100
AcDbLine
8
Out
10
632126.22
20
3722250.0399999996
30
0
11
632115.8400000001
21
3722251.2300000004
31
0
0
LINE
5
58
100
AcDbEntity
100
AcDbLine
8
Out
10
632115.8400000001
20
3722251.2300000004
30
0
11
632113.6800000003
21
3722249.9699999993
31
0
0
LINE
5
59
100
AcDbEntity
100
AcDbLine
8
Out
10
632113.6800000003
20
3722249.9699999993
30
0
11
632113.8099999995
21
3722251.08
31
0
0
LINE
5
5a
100
AcDbEntity
100
AcDbLine
8
Out
10
632113.8099999995
20
3722251.08
30
0
11
632115.1300000005
21
3722261.249999999
31
0
0
LINE
5
5b
100
AcDbEntity
100
AcDbLine
8
Out
10
632128.9399999997
20
3722259.79
30
0
11
632128.8700000005
21
3722258.729999999
31
0
0
LINE
5
5c
100
AcDbEntity
100
AcDbLine
8
Out
10
632128.8700000005
20
3722258.729999999
30
0
11
632116.54
21
3722260.7799999993
31
0
0
LINE
5
5d
100
AcDbEntity
100
AcDbLine
8
Out
10
632117.3800000004
20
3722283.4399999995
30
0
11
632118.7300000007
21
3722294.1399999997
31
0
0
LINE
5
5e
100
AcDbEntity
100
AcDbLine
8
Out
10
632118.7300000007
20
3722294.1399999997
30
0
11
632135.6499999999
21
3722288.959999999
31
0
0
LINE
5
5f
100
AcDbEntity
100
AcDbLine
8
Out
10
632135.6499999999
20
3722288.959999999
30
0
11
632126.4099999995
21
3722280.1899999995
31
0
0
LINE
5
60
100
AcDbEntity
100
AcDbLine
8
Out
10
632115.9400000003
20
3722269.210000001
30
0
11
632122.3400000008
21
3722276.7900000005
31
0
0
LINE
5
61
100
AcDbEntity
100
AcDbLine
8
Out
10
632122.3400000008
20
3722276.7900000005
30
0
11
632126.4099999995
21
3722280.1899999995
31
0
0
LINE
5
62
100
AcDbEntity
100
AcDbLine
8
Out
10
632128.9399999997
20
3722259.79
30
0
11
632130.2800000003
21
3722279.6799999997
31
0
0
LINE
5
63
100
AcDbEntity
100
AcDbLine
8
Out
10
632130.2800000003
20
3722279.6799999997
30
0
11
632126.4099999995
21
3722280.1899999995
31
0
0
LINE
5
64
100
AcDbEntity
100
AcDbLine
8
Out
10
632054.0299999997
20
3722239.4799999995
30
0
11
632066.6199999995
21
3722227.3599999985
31
0
0
LINE
5
65
100
AcDbEntity
100
AcDbLine
8
Out
10
632066.6199999995
20
3722227.3599999985
30
0
11
632068.4200000006
21
3722227.37
31
0
0
LINE
5
66
100
AcDbEntity
100
AcDbLine
8
Out
10
632068.4200000006
20
3722227.37
30
0
11
632062.7200000006
21
3722219.119999999
31
0
0
LINE
5
67
100
AcDbEntity
100
AcDbLine
8
Out
10
632062.7200000006
20
3722219.119999999
30
0
11
632062.4399999992
21
3722220.289999999
31
0
0
LINE
5
68
100
AcDbEntity
100
AcDbLine
8
Out
10
632062.4399999992
20
3722220.289999999
30
0
11
632048.2900000003
21
3722233.7799999993
31
0
0
LINE
5
69
100
AcDbEntity
100
AcDbLine
8
Out
10
632048.2900000003
20
3722233.7799999993
30
0
11
632031.1600000003
21
3722250.8899999997
31
0
0
LINE
5
6a
100
AcDbEntity
100
AcDbLine
8
Out
10
632031.1600000003
20
3722250.8899999997
30
0
11
632028.6399999999
21
3722253.17
31
0
0
LINE
5
6b
100
AcDbEntity
100
AcDbLine
8
Out
10
632028.6399999999
20
3722253.17
30
0
11
632027.0399999992
21
3722253.2599999993
31
0
0
LINE
5
6c
100
AcDbEntity
100
AcDbLine
8
Out
10
632027.0399999992
20
3722253.2599999993
30
0
11
632019.9700000004
21
3722248.6699999985
31
0
0
LINE
5
6d
100
AcDbEntity
100
AcDbLine
8
Out
10
632019.9700000004
20
3722248.6699999985
30
0
11
632011.2099999995
21
3722242.840000001
31
0
0
LINE
5
6e
100
AcDbEntity
100
AcDbLine
8
Out
10
632011.2099999995
20
3722242.840000001
30
0
11
632010.5000000001
21
3722243.630000001
31
0
0
LINE
5
6f
100
AcDbEntity
100
AcDbLine
8
Out
10
632010.5000000001
20
3722243.630000001
30
0
11
632002.3800000001
21
3722238.419999999
31
0
0
LINE
5
70
100
AcDbEntity
100
AcDbLine
8
Out
10
632002.3800000001
20
3722238.419999999
30
0
11
632002.8799999994
21
3722237.5000000005
31
0
0
LINE
5
71
100
AcDbEntity
100
AcDbLine
8
Out
10
632002.8799999994
20
3722237.5000000005
30
0
11
631994.4800000004
21
3722232.2300000004
31
0
0
LINE
5
72
100
AcDbEntity
100
AcDbLine
8
Out
10
631994.4800000004
20
3722232.2300000004
30
0
11
631986.0100000004
21
3722226.7399999998
31
0
0
LINE
5
73
100
AcDbEntity
100
AcDbLine
8
Out
10
631986.0100000004
20
3722226.7399999998
30
0
11
631977.1700000005
21
3722221.0699999994
31
0
0
LINE
5
74
100
AcDbEntity
100
AcDbLine
8
Out
10
631977.1700000005
20
3722221.0699999994
30
0
11
631959.72
21
3722210.0299999993
31
0
0
LINE
5
75
100
AcDbEntity
100
AcDbLine
8
Out
10
631959.72
20
3722210.0299999993
30
0
11
631951.9499999995
21
3722205.12
31
0
0
LINE
5
76
100
AcDbEntity
100
AcDbLine
8
Out
10
631951.9499999995
20
3722205.12
30
0
11
631941.0799999996
21
3722198.3099999996
31
0
0
LINE
5
77
100
AcDbEntity
100
AcDbLine
8
Out
10
631941.0799999996
20
3722198.3099999996
30
0
11
631940.6599999993
21
3722196.8699999996
31
0
0
LINE
5
78
100
AcDbEntity
100
AcDbLine
8
Out
10
631940.6599999993
20
3722196.8699999996
30
0
11
631940.9899999995
21
3722208.839999999
31
0
0
LINE
5
79
100
AcDbEntity
100
AcDbLine
8
Out
10
631940.9899999995
20
3722208.839999999
30
0
11
631948.4800000003
21
3722213.3199999994
31
0
0
LINE
5
7a
100
AcDbEntity
100
AcDbLine
8
Out
10
631948.4800000003
20
3722213.3199999994
30
0
11
631955.6500000007
21
3722218.4700000007
31
0
0
LINE
5
7b
100
AcDbEntity
100
AcDbLine
8
Out
10
631955.6500000007
20
3722218.4700000007
30
0
11
631956.4199999995
21
3722220.0900000003
31
0
0
LINE
5
7c
100
AcDbEntity
100
AcDbLine
8
Out
10
631956.4199999995
20
3722220.0900000003
30
0
11
631964.23
21
3722222.1
31
0
0
LINE
5
7d
100
AcDbEntity
100
AcDbLine
8
Out
10
631964.23
20
3722222.1
30
0
11
631974.0800000001
21
3722228.62
31
0
0
LINE
5
7e
100
AcDbEntity
100
AcDbLine
8
Out
10
631974.0800000001
20
3722228.62
30
0
11
631994.6700000005
21
3722241.709999999
31
0
0
LINE
5
7f
100
AcDbEntity
100
AcDbLine
8
Out
10
631994.6700000005
20
3722241.709999999
30
0
11
631994.6300000006
21
3722241.7699999996
31
0
0
LINE
5
80
100
AcDbEntity
100
AcDbLine
8
Out
10
631994.6300000006
20
3722241.7699999996
30
0
11
632010.1999999997
21
3722251.650000001
31
0
0
LINE
5
81
100
AcDbEntity
100
AcDbLine
8
Out
10
632010.1999999997
20
3722251.650000001
30
0
11
632010.5999999999
21
3722253.1600000006
31
0
0
LINE
5
82
100
AcDbEntity
100
AcDbLine
8
Out
10
632010.5999999999
20
3722253.1600000006
30
0
11
632017.0999999996
21
3722256.07
31
0
0
LINE
5
83
100
AcDbEntity
100
AcDbLine
8
Out
10
632044.4000000004
20
3722249.0100000002
30
0
11
632033.92
21
3722259.39
31
0
0
LINE
5
88
100
AcDbEntity
100
AcDbLine
8
Out
10
632051.2899999992
20
3722256.65
30
0
11
632044.4000000004
21
3722249.0100000002
31
0
0
LINE
5
89
100
AcDbEntity
100
AcDbLine
8
Out
10
632083.95
20
3722252.3800000013
30
0
11
632085.380000001
21
3722262.2799999993
31
0
0
LINE
5
8b
100
AcDbEntity
100
AcDbLine
8
Out
10
632022.2199999997
20
3722272.6499999994
30
0
11
632010.5100000005
21
3722264.97
31
0
0
LINE
5
8c
100
AcDbEntity
100
AcDbLine
8
Out
10
632010.5100000005
20
3722264.97
30
0
11
632015.7599999999
21
3722256.479999999
31
0
0
LINE
5
8d
100
AcDbEntity
100
AcDbLine
8
Out
10
632015.7599999999
20
3722256.479999999
30
0
11
632017.0999999996
21
3722256.07
31
0
0
LINE
5
92
100
AcDbEntity
100
AcDbLine
8
Out
10
632027.6400000007
20
3722284.6899999995
30
0
11
632010.78
21
3722286.4100000006
31
0
0
LINE
5
93
100
AcDbEntity
100
AcDbLine
8
Out
10
632010.78
20
3722286.4100000006
30
0
11
632022.2199999997
21
3722272.6499999994
31
0
0
LINE
5
99
100
AcDbEntity
100
AcDbLine
8
Out
10
632078.4499999996
20
3722289.0099999993
30
0
11
632080.5600000004
21
3722309.21
31
0
0
LINE
5
9a
100
AcDbEntity
100
AcDbLine
8
Out
10
632080.5600000004
20
3722309.21
30
0
11
632089.6700000003
21
3722308.0600000005
31
0
0
LINE
5
9b
100
AcDbEntity
100
AcDbLine
8
Out
10
632089.6700000003
20
3722308.0600000005
30
0
11
632090.42
21
3722306.8400000003
31
0
0
LINE
5
9c
100
AcDbEntity
100
AcDbLine
8
Out
10
632090.42
20
3722306.8400000003
30
0
11
632088.5199999996
21
3722288.829999999
31
0
0
LINE
5
9d
100
AcDbEntity
100
AcDbLine
8
Out
10
632088.5199999996
20
3722288.829999999
30
0
11
632087.3100000011
21
3722287.9800000014
31
0
0
LINE
5
9e
100
AcDbEntity
100
AcDbLine
8
Out
10
632087.3100000011
20
3722287.9800000014
30
0
11
632078.4499999996
21
3722289.0099999993
31
0
0
LINE
5
24
100
AcDbEntity
100
AcDbLine
8
MainBoundary
10
632077.1099999999
20
3722279.1900000004
30
0
11
632075.2600000004
21
3722263.399999998
31
0
0
LINE
5
25
100
AcDbEntity
100
AcDbLine
8
MainBoundary
10
632075.2600000004
20
3722263.399999998
30
0
11
632065.2200000007
21
3722264.47
31
0
0
LINE
5
27
100
AcDbEntity
100
AcDbLine
8
MainBoundary
10
632065.2200000007
20
3722264.47
30
0
11
632067.1971999998
21
3722280.490300001
31
0
0
LINE
5
40
100
AcDbEntity
100
AcDbLine
8
MainBoundary
10
632077.1099999999
20
3722279.1900000004
30
0
11
632077.1300000002
21
3722279.379999999
31
0
0
LINE
5
41
100
AcDbEntity
100
AcDbLine
8
MainBoundary
10
632077.1300000002
20
3722279.379999999
30
0
11
632067.1971999998
21
3722280.490300001
31
0
0
LINE
5
29
100
AcDbEntity
100
AcDbLine
8
Mabar
10
632115.1300000005
20
3722261.249999999
30
0
11
632115.2699999996
21
3722262.54
31
0
0
LINE
5
2a
100
AcDbEntity
100
AcDbLine
8
Mabar
10
632115.1300000005
20
3722261.249999999
30
0
11
632116.54
21
3722260.7799999993
31
0
0
ENDSEC
0
SECTION
2
OBJECTS
0
DICTIONARY
5
4
100
AcDbDictionary
281
1
3
ACAD_GROUP
350
b0
0
DICTIONARY
5
b0
330
4
100
AcDbDictionary
281
1
0
ENDSEC
0
EOF
